<mxfile host="drawio-plugin" modified="2022-05-02T22:05:32.538Z" agent="5.0 (Windows NT 6.2; Win64; x64) AppleWebKit/537.36 (KHTML, like Gecko) Chrome/89.0.4389.114 Safari/537.36" etag="SmsE68dECtgZejJd09Q7" version="15.5.4" type="embed"><diagram id="T32aekfIllu5dWQNfJEE" name="Page-1"><mxGraphModel dx="2398" dy="3081" grid="1" gridSize="10" guides="1" tooltips="1" connect="1" arrows="1" fold="1" page="1" pageScale="1" pageWidth="827" pageHeight="1169" math="0" shadow="0"><root><mxCell id="0"/><mxCell id="1" parent="0"/><mxCell id="2G7QyxXY0g-MNs9BxpqW-143" value="" style="rounded=1;whiteSpace=wrap;html=1;" parent="1" vertex="1"><mxGeometry x="90" y="-1420" width="1710" height="1240" as="geometry"/></mxCell><mxCell id="2G7QyxXY0g-MNs9BxpqW-136" value="" style="rounded=1;whiteSpace=wrap;html=1;" parent="1" vertex="1"><mxGeometry x="-840" y="-830" width="560" height="240" as="geometry"/></mxCell><mxCell id="2G7QyxXY0g-MNs9BxpqW-134" value="" style="rounded=1;whiteSpace=wrap;html=1;" parent="1" vertex="1"><mxGeometry x="-620" y="-1680" width="520" height="490" as="geometry"/></mxCell><mxCell id="2G7QyxXY0g-MNs9BxpqW-76" style="edgeStyle=orthogonalEdgeStyle;rounded=0;orthogonalLoop=1;jettySize=auto;html=1;entryX=1;entryY=0.081;entryDx=0;entryDy=0;entryPerimeter=0;jumpStyle=arc;" parent="1" source="Ooq9MZfTdX-30O_yYHVG-53" target="2G7QyxXY0g-MNs9BxpqW-2" edge="1"><mxGeometry relative="1" as="geometry"/></mxCell><mxCell id="2G7QyxXY0g-MNs9BxpqW-78" style="edgeStyle=orthogonalEdgeStyle;rounded=0;orthogonalLoop=1;jettySize=auto;html=1;entryX=1;entryY=0.25;entryDx=0;entryDy=0;jumpStyle=arc;" parent="1" source="2G7QyxXY0g-MNs9BxpqW-6" target="2G7QyxXY0g-MNs9BxpqW-19" edge="1"><mxGeometry relative="1" as="geometry"/></mxCell><mxCell id="2G7QyxXY0g-MNs9BxpqW-79" style="edgeStyle=orthogonalEdgeStyle;rounded=0;orthogonalLoop=1;jettySize=auto;html=1;entryX=1;entryY=0.25;entryDx=0;entryDy=0;jumpStyle=arc;" parent="1" source="2G7QyxXY0g-MNs9BxpqW-35" target="2G7QyxXY0g-MNs9BxpqW-37" edge="1"><mxGeometry relative="1" as="geometry"/></mxCell><mxCell id="2G7QyxXY0g-MNs9BxpqW-80" style="edgeStyle=orthogonalEdgeStyle;rounded=0;orthogonalLoop=1;jettySize=auto;html=1;entryX=-0.006;entryY=0.112;entryDx=0;entryDy=0;entryPerimeter=0;jumpStyle=arc;" parent="1" source="2G7QyxXY0g-MNs9BxpqW-3" target="Ooq9MZfTdX-30O_yYHVG-12" edge="1"><mxGeometry relative="1" as="geometry"/></mxCell><mxCell id="2G7QyxXY0g-MNs9BxpqW-81" style="edgeStyle=orthogonalEdgeStyle;rounded=0;orthogonalLoop=1;jettySize=auto;html=1;entryX=0;entryY=0.25;entryDx=0;entryDy=0;jumpStyle=arc;" parent="1" source="Ooq9MZfTdX-30O_yYHVG-46" target="Ooq9MZfTdX-30O_yYHVG-47" edge="1"><mxGeometry relative="1" as="geometry"/></mxCell><mxCell id="2G7QyxXY0g-MNs9BxpqW-83" style="edgeStyle=orthogonalEdgeStyle;rounded=0;orthogonalLoop=1;jettySize=auto;html=1;entryX=0.006;entryY=0.102;entryDx=0;entryDy=0;entryPerimeter=0;jumpStyle=arc;exitX=0;exitY=0.5;exitDx=0;exitDy=0;" parent="1" source="2G7QyxXY0g-MNs9BxpqW-82" target="Ooq9MZfTdX-30O_yYHVG-12" edge="1"><mxGeometry relative="1" as="geometry"/></mxCell><mxCell id="2G7QyxXY0g-MNs9BxpqW-86" style="edgeStyle=orthogonalEdgeStyle;rounded=0;orthogonalLoop=1;jettySize=auto;html=1;entryX=0;entryY=0.25;entryDx=0;entryDy=0;jumpStyle=arc;" parent="1" source="2G7QyxXY0g-MNs9BxpqW-84" target="Ooq9MZfTdX-30O_yYHVG-39" edge="1"><mxGeometry relative="1" as="geometry"><Array as="points"><mxPoint x="-340" y="-1223"/><mxPoint x="-340" y="-1259"/></Array></mxGeometry></mxCell><mxCell id="2G7QyxXY0g-MNs9BxpqW-88" style="edgeStyle=orthogonalEdgeStyle;rounded=0;orthogonalLoop=1;jettySize=auto;html=1;entryX=1;entryY=0.089;entryDx=0;entryDy=0;entryPerimeter=0;jumpStyle=arc;" parent="1" source="2G7QyxXY0g-MNs9BxpqW-87" target="Ooq9MZfTdX-30O_yYHVG-12" edge="1"><mxGeometry relative="1" as="geometry"/></mxCell><mxCell id="2G7QyxXY0g-MNs9BxpqW-90" style="edgeStyle=orthogonalEdgeStyle;rounded=0;orthogonalLoop=1;jettySize=auto;html=1;entryX=1;entryY=0.067;entryDx=0;entryDy=0;entryPerimeter=0;jumpStyle=arc;" parent="1" source="2G7QyxXY0g-MNs9BxpqW-89" target="Ooq9MZfTdX-30O_yYHVG-51" edge="1"><mxGeometry relative="1" as="geometry"><Array as="points"><mxPoint x="930" y="-463"/><mxPoint x="930" y="-530"/><mxPoint x="1270" y="-530"/><mxPoint x="1270" y="-1120"/></Array></mxGeometry></mxCell><mxCell id="2G7QyxXY0g-MNs9BxpqW-92" style="edgeStyle=orthogonalEdgeStyle;rounded=0;orthogonalLoop=1;jettySize=auto;html=1;entryX=0.994;entryY=0.06;entryDx=0;entryDy=0;entryPerimeter=0;jumpStyle=arc;" parent="1" source="2G7QyxXY0g-MNs9BxpqW-91" target="Ooq9MZfTdX-30O_yYHVG-51" edge="1"><mxGeometry relative="1" as="geometry"/></mxCell><mxCell id="2G7QyxXY0g-MNs9BxpqW-94" style="edgeStyle=orthogonalEdgeStyle;rounded=0;orthogonalLoop=1;jettySize=auto;html=1;entryX=1;entryY=0.067;entryDx=0;entryDy=0;entryPerimeter=0;jumpStyle=arc;" parent="1" source="2G7QyxXY0g-MNs9BxpqW-93" target="Ooq9MZfTdX-30O_yYHVG-51" edge="1"><mxGeometry relative="1" as="geometry"/></mxCell><mxCell id="2G7QyxXY0g-MNs9BxpqW-95" style="edgeStyle=orthogonalEdgeStyle;rounded=0;orthogonalLoop=1;jettySize=auto;html=1;entryX=0;entryY=0.25;entryDx=0;entryDy=0;jumpStyle=arc;" parent="1" source="Ooq9MZfTdX-30O_yYHVG-66" target="2G7QyxXY0g-MNs9BxpqW-33" edge="1"><mxGeometry relative="1" as="geometry"/></mxCell><mxCell id="2G7QyxXY0g-MNs9BxpqW-98" style="edgeStyle=orthogonalEdgeStyle;rounded=0;orthogonalLoop=1;jettySize=auto;html=1;entryX=0;entryY=0.25;entryDx=0;entryDy=0;" parent="1" source="2G7QyxXY0g-MNs9BxpqW-97" target="Ooq9MZfTdX-30O_yYHVG-87" edge="1"><mxGeometry relative="1" as="geometry"><Array as="points"><mxPoint x="1280" y="-225"/><mxPoint x="1280" y="-252"/></Array></mxGeometry></mxCell><mxCell id="2G7QyxXY0g-MNs9BxpqW-102" style="edgeStyle=orthogonalEdgeStyle;rounded=0;orthogonalLoop=1;jettySize=auto;html=1;entryX=0.444;entryY=-0.042;entryDx=0;entryDy=0;entryPerimeter=0;jumpStyle=arc;" parent="1" source="2G7QyxXY0g-MNs9BxpqW-44" target="2G7QyxXY0g-MNs9BxpqW-45" edge="1"><mxGeometry relative="1" as="geometry"/></mxCell><mxCell id="2G7QyxXY0g-MNs9BxpqW-104" style="edgeStyle=orthogonalEdgeStyle;rounded=0;orthogonalLoop=1;jettySize=auto;html=1;entryX=0.25;entryY=0;entryDx=0;entryDy=0;jumpStyle=arc;" parent="1" source="Ooq9MZfTdX-30O_yYHVG-76" target="2G7QyxXY0g-MNs9BxpqW-25" edge="1"><mxGeometry relative="1" as="geometry"/></mxCell><mxCell id="2G7QyxXY0g-MNs9BxpqW-105" style="edgeStyle=orthogonalEdgeStyle;rounded=0;orthogonalLoop=1;jettySize=auto;html=1;entryX=0.13;entryY=0.02;entryDx=0;entryDy=0;entryPerimeter=0;jumpStyle=arc;" parent="1" source="Ooq9MZfTdX-30O_yYHVG-77" target="2G7QyxXY0g-MNs9BxpqW-25" edge="1"><mxGeometry relative="1" as="geometry"/></mxCell><mxCell id="2G7QyxXY0g-MNs9BxpqW-106" style="edgeStyle=orthogonalEdgeStyle;rounded=0;orthogonalLoop=1;jettySize=auto;html=1;entryX=0.005;entryY=0.11;entryDx=0;entryDy=0;entryPerimeter=0;jumpStyle=arc;" parent="1" source="Ooq9MZfTdX-30O_yYHVG-86" target="2G7QyxXY0g-MNs9BxpqW-25" edge="1"><mxGeometry relative="1" as="geometry"/></mxCell><mxCell id="2G7QyxXY0g-MNs9BxpqW-107" style="edgeStyle=orthogonalEdgeStyle;rounded=0;orthogonalLoop=1;jettySize=auto;html=1;entryX=0.996;entryY=0.097;entryDx=0;entryDy=0;entryPerimeter=0;jumpStyle=arc;" parent="1" source="Ooq9MZfTdX-30O_yYHVG-135" target="2G7QyxXY0g-MNs9BxpqW-40" edge="1"><mxGeometry relative="1" as="geometry"><Array as="points"><mxPoint x="470" y="-1037"/><mxPoint x="470" y="-538"/></Array></mxGeometry></mxCell><mxCell id="2G7QyxXY0g-MNs9BxpqW-108" style="edgeStyle=orthogonalEdgeStyle;rounded=0;orthogonalLoop=1;jettySize=auto;html=1;entryX=1.001;entryY=0.074;entryDx=0;entryDy=0;entryPerimeter=0;jumpStyle=arc;" parent="1" source="Ooq9MZfTdX-30O_yYHVG-137" target="2G7QyxXY0g-MNs9BxpqW-51" edge="1"><mxGeometry relative="1" as="geometry"><Array as="points"><mxPoint x="630" y="-1011"/><mxPoint x="630" y="-810"/><mxPoint x="680" y="-810"/><mxPoint x="680" y="-519"/></Array></mxGeometry></mxCell><mxCell id="2G7QyxXY0g-MNs9BxpqW-109" style="edgeStyle=orthogonalEdgeStyle;rounded=0;orthogonalLoop=1;jettySize=auto;html=1;jumpStyle=arc;" parent="1" source="Ooq9MZfTdX-30O_yYHVG-144" target="2G7QyxXY0g-MNs9BxpqW-69" edge="1"><mxGeometry relative="1" as="geometry"><Array as="points"><mxPoint x="590" y="-959"/></Array></mxGeometry></mxCell><mxCell id="2G7QyxXY0g-MNs9BxpqW-110" style="edgeStyle=orthogonalEdgeStyle;rounded=0;orthogonalLoop=1;jettySize=auto;html=1;entryX=1;entryY=0.029;entryDx=0;entryDy=0;entryPerimeter=0;jumpStyle=arc;" parent="1" source="Ooq9MZfTdX-30O_yYHVG-138" target="2G7QyxXY0g-MNs9BxpqW-56" edge="1"><mxGeometry relative="1" as="geometry"><Array as="points"><mxPoint x="940" y="-985"/><mxPoint x="940" y="-892"/></Array></mxGeometry></mxCell><mxCell id="2G7QyxXY0g-MNs9BxpqW-112" style="edgeStyle=orthogonalEdgeStyle;rounded=0;orthogonalLoop=1;jettySize=auto;html=1;entryX=0.5;entryY=0;entryDx=0;entryDy=0;jumpStyle=arc;" parent="1" source="2G7QyxXY0g-MNs9BxpqW-111" target="Ooq9MZfTdX-30O_yYHVG-51" edge="1"><mxGeometry relative="1" as="geometry"/></mxCell><mxCell id="2G7QyxXY0g-MNs9BxpqW-113" style="edgeStyle=orthogonalEdgeStyle;rounded=0;orthogonalLoop=1;jettySize=auto;html=1;entryX=0.913;entryY=0.006;entryDx=0;entryDy=0;entryPerimeter=0;exitX=0;exitY=0.5;exitDx=0;exitDy=0;jumpStyle=arc;" parent="1" source="Ooq9MZfTdX-30O_yYHVG-102" target="Ooq9MZfTdX-30O_yYHVG-12" edge="1"><mxGeometry relative="1" as="geometry"><mxPoint x="-411" y="-1335" as="targetPoint"/><Array as="points"><mxPoint x="260" y="-1301"/><mxPoint x="260" y="-1350"/><mxPoint x="-404" y="-1350"/></Array></mxGeometry></mxCell><mxCell id="2G7QyxXY0g-MNs9BxpqW-114" style="edgeStyle=orthogonalEdgeStyle;rounded=0;orthogonalLoop=1;jettySize=auto;html=1;entryX=0.75;entryY=0;entryDx=0;entryDy=0;jumpStyle=arc;" parent="1" source="Ooq9MZfTdX-30O_yYHVG-103" target="Ooq9MZfTdX-30O_yYHVG-12" edge="1"><mxGeometry relative="1" as="geometry"/></mxCell><mxCell id="2G7QyxXY0g-MNs9BxpqW-115" style="edgeStyle=orthogonalEdgeStyle;rounded=0;orthogonalLoop=1;jettySize=auto;html=1;entryX=0.5;entryY=0;entryDx=0;entryDy=0;jumpStyle=arc;" parent="1" source="Ooq9MZfTdX-30O_yYHVG-104" target="Ooq9MZfTdX-30O_yYHVG-12" edge="1"><mxGeometry relative="1" as="geometry"><mxPoint x="-390" y="-1160" as="targetPoint"/></mxGeometry></mxCell><mxCell id="2G7QyxXY0g-MNs9BxpqW-116" style="edgeStyle=orthogonalEdgeStyle;rounded=0;orthogonalLoop=1;jettySize=auto;html=1;entryX=0.189;entryY=0.006;entryDx=0;entryDy=0;entryPerimeter=0;jumpStyle=arc;" parent="1" source="Ooq9MZfTdX-30O_yYHVG-105" target="Ooq9MZfTdX-30O_yYHVG-12" edge="1"><mxGeometry relative="1" as="geometry"/></mxCell><mxCell id="2G7QyxXY0g-MNs9BxpqW-120" style="edgeStyle=orthogonalEdgeStyle;rounded=0;orthogonalLoop=1;jettySize=auto;html=1;entryX=0.844;entryY=0.007;entryDx=0;entryDy=0;entryPerimeter=0;jumpStyle=arc;" parent="1" source="2G7QyxXY0g-MNs9BxpqW-119" target="Ooq9MZfTdX-30O_yYHVG-51" edge="1"><mxGeometry relative="1" as="geometry"/></mxCell><mxCell id="2G7QyxXY0g-MNs9BxpqW-129" style="edgeStyle=orthogonalEdgeStyle;rounded=0;orthogonalLoop=1;jettySize=auto;html=1;entryX=0;entryY=0.25;entryDx=0;entryDy=0;exitX=1;exitY=0.5;exitDx=0;exitDy=0;jumpStyle=arc;" parent="1" source="Ooq9MZfTdX-30O_yYHVG-69" target="2G7QyxXY0g-MNs9BxpqW-127" edge="1"><mxGeometry relative="1" as="geometry"><Array as="points"><mxPoint x="1237" y="-249"/><mxPoint x="1270" y="-249"/><mxPoint x="1270" y="-320"/></Array></mxGeometry></mxCell><mxCell id="2G7QyxXY0g-MNs9BxpqW-132" style="edgeStyle=orthogonalEdgeStyle;rounded=0;orthogonalLoop=1;jettySize=auto;html=1;entryX=0.5;entryY=0;entryDx=0;entryDy=0;jumpStyle=arc;" parent="1" source="Ooq9MZfTdX-30O_yYHVG-123" target="2G7QyxXY0g-MNs9BxpqW-130" edge="1"><mxGeometry relative="1" as="geometry"/></mxCell><mxCell id="2G7QyxXY0g-MNs9BxpqW-133" style="edgeStyle=orthogonalEdgeStyle;rounded=0;orthogonalLoop=1;jettySize=auto;html=1;entryX=0.31;entryY=-0.005;entryDx=0;entryDy=0;entryPerimeter=0;jumpStyle=arc;" parent="1" source="Ooq9MZfTdX-30O_yYHVG-125" target="Ooq9MZfTdX-30O_yYHVG-12" edge="1"><mxGeometry relative="1" as="geometry"/></mxCell><mxCell id="2G7QyxXY0g-MNs9BxpqW-2" value="Project" style="swimlane;fontStyle=0;childLayout=stackLayout;horizontal=1;startSize=20;fillColor=none;horizontalStack=0;resizeParent=1;resizeParentMax=0;resizeLast=0;collapsible=1;marginBottom=0;" parent="1" vertex="1"><mxGeometry x="-510" y="-808" width="200" height="160" as="geometry"><mxRectangle x="10" y="-1210" width="100" height="26" as="alternateBounds"/></mxGeometry></mxCell><mxCell id="2G7QyxXY0g-MNs9BxpqW-3" value="Project Lead: User" style="text;strokeColor=none;fillColor=none;align=left;verticalAlign=top;spacingLeft=4;spacingRight=4;overflow=hidden;rotatable=0;points=[[0,0.5],[1,0.5]];portConstraint=eastwest;" parent="2G7QyxXY0g-MNs9BxpqW-2" vertex="1"><mxGeometry y="20" width="200" height="26" as="geometry"/></mxCell><mxCell id="2G7QyxXY0g-MNs9BxpqW-4" value="Last week most active: List&lt;User&gt;" style="text;strokeColor=none;fillColor=none;align=left;verticalAlign=top;spacingLeft=4;spacingRight=4;overflow=hidden;rotatable=0;points=[[0,0.5],[1,0.5]];portConstraint=eastwest;" parent="2G7QyxXY0g-MNs9BxpqW-2" vertex="1"><mxGeometry y="46" width="200" height="26" as="geometry"/></mxCell><mxCell id="2G7QyxXY0g-MNs9BxpqW-5" value="Key: String" style="text;strokeColor=none;fillColor=none;align=left;verticalAlign=top;spacingLeft=4;spacingRight=4;overflow=hidden;rotatable=0;points=[[0,0.5],[1,0.5]];portConstraint=eastwest;" parent="2G7QyxXY0g-MNs9BxpqW-2" vertex="1"><mxGeometry y="72" width="200" height="28" as="geometry"/></mxCell><mxCell id="2G7QyxXY0g-MNs9BxpqW-6" value="Category: ProjectCategory" style="text;strokeColor=none;fillColor=none;align=left;verticalAlign=top;spacingLeft=4;spacingRight=4;overflow=hidden;rotatable=0;points=[[0,0.5],[1,0.5]];portConstraint=eastwest;" parent="2G7QyxXY0g-MNs9BxpqW-2" vertex="1"><mxGeometry y="100" width="200" height="30" as="geometry"/></mxCell><mxCell id="2G7QyxXY0g-MNs9BxpqW-35" value="Type: ProjectType" style="text;strokeColor=none;fillColor=none;align=left;verticalAlign=top;spacingLeft=4;spacingRight=4;overflow=hidden;rotatable=0;points=[[0,0.5],[1,0.5]];portConstraint=eastwest;" parent="2G7QyxXY0g-MNs9BxpqW-2" vertex="1"><mxGeometry y="130" width="200" height="30" as="geometry"/></mxCell><mxCell id="2G7QyxXY0g-MNs9BxpqW-19" value="ProjectCategory &lt;ENUM&gt;" style="swimlane;fontStyle=0;childLayout=stackLayout;horizontal=1;startSize=20;fillColor=none;horizontalStack=0;resizeParent=1;resizeParentMax=0;resizeLast=0;collapsible=1;marginBottom=0;" parent="1" vertex="1"><mxGeometry x="-810" y="-717" width="200" height="48" as="geometry"><mxRectangle x="10" y="-1210" width="100" height="26" as="alternateBounds"/></mxGeometry></mxCell><mxCell id="2G7QyxXY0g-MNs9BxpqW-22" value="Check (projectCategories.txt)&#10;" style="text;strokeColor=none;fillColor=none;align=left;verticalAlign=top;spacingLeft=4;spacingRight=4;overflow=hidden;rotatable=0;points=[[0,0.5],[1,0.5]];portConstraint=eastwest;" parent="2G7QyxXY0g-MNs9BxpqW-19" vertex="1"><mxGeometry y="20" width="200" height="28" as="geometry"/></mxCell><mxCell id="2G7QyxXY0g-MNs9BxpqW-37" value="ProjectType &lt;ENUM&gt;" style="swimlane;fontStyle=0;childLayout=stackLayout;horizontal=1;startSize=20;fillColor=none;horizontalStack=0;resizeParent=1;resizeParentMax=0;resizeLast=0;collapsible=1;marginBottom=0;" parent="1" vertex="1"><mxGeometry x="-810" y="-658" width="200" height="48" as="geometry"><mxRectangle x="10" y="-1210" width="100" height="26" as="alternateBounds"/></mxGeometry></mxCell><mxCell id="2G7QyxXY0g-MNs9BxpqW-38" value="Check (projectTypes.txt)&#10;" style="text;strokeColor=none;fillColor=none;align=left;verticalAlign=top;spacingLeft=4;spacingRight=4;overflow=hidden;rotatable=0;points=[[0,0.5],[1,0.5]];portConstraint=eastwest;" parent="2G7QyxXY0g-MNs9BxpqW-37" vertex="1"><mxGeometry y="20" width="200" height="28" as="geometry"/></mxCell><mxCell id="Ooq9MZfTdX-30O_yYHVG-12" value="User" style="swimlane;fontStyle=0;childLayout=stackLayout;horizontal=1;startSize=20;fillColor=none;horizontalStack=0;resizeParent=1;resizeParentMax=0;resizeLast=0;collapsible=1;marginBottom=0;" parent="1" vertex="1"><mxGeometry x="-550" y="-1334" width="160" height="124" as="geometry"><mxRectangle x="10" y="-1210" width="100" height="26" as="alternateBounds"/></mxGeometry></mxCell><mxCell id="Ooq9MZfTdX-30O_yYHVG-13" value="login: String" style="text;strokeColor=none;fillColor=none;align=left;verticalAlign=top;spacingLeft=4;spacingRight=4;overflow=hidden;rotatable=0;points=[[0,0.5],[1,0.5]];portConstraint=eastwest;" parent="Ooq9MZfTdX-30O_yYHVG-12" vertex="1"><mxGeometry y="20" width="160" height="26" as="geometry"/></mxCell><mxCell id="Ooq9MZfTdX-30O_yYHVG-14" value="password: String" style="text;strokeColor=none;fillColor=none;align=left;verticalAlign=top;spacingLeft=4;spacingRight=4;overflow=hidden;rotatable=0;points=[[0,0.5],[1,0.5]];portConstraint=eastwest;" parent="Ooq9MZfTdX-30O_yYHVG-12" vertex="1"><mxGeometry y="46" width="160" height="26" as="geometry"/></mxCell><mxCell id="Ooq9MZfTdX-30O_yYHVG-46" value="role: Role" style="text;strokeColor=none;fillColor=none;align=left;verticalAlign=top;spacingLeft=4;spacingRight=4;overflow=hidden;rotatable=0;points=[[0,0.5],[1,0.5]];portConstraint=eastwest;" parent="Ooq9MZfTdX-30O_yYHVG-12" vertex="1"><mxGeometry y="72" width="160" height="26" as="geometry"/></mxCell><mxCell id="2G7QyxXY0g-MNs9BxpqW-84" value="groups: List&lt;UserGroup&gt;" style="text;strokeColor=none;fillColor=none;align=left;verticalAlign=top;spacingLeft=4;spacingRight=4;overflow=hidden;rotatable=0;points=[[0,0.5],[1,0.5]];portConstraint=eastwest;" parent="Ooq9MZfTdX-30O_yYHVG-12" vertex="1"><mxGeometry y="98" width="160" height="26" as="geometry"/></mxCell><mxCell id="Ooq9MZfTdX-30O_yYHVG-2" value="UserDetails" style="swimlane;fontStyle=0;childLayout=stackLayout;horizontal=1;startSize=20;fillColor=none;horizontalStack=0;resizeParent=1;resizeParentMax=0;resizeLast=0;collapsible=1;marginBottom=0;" parent="1" vertex="1"><mxGeometry x="-550" y="-1654" width="160" height="250" as="geometry"><mxRectangle x="10" y="-1210" width="100" height="26" as="alternateBounds"/></mxGeometry></mxCell><mxCell id="Ooq9MZfTdX-30O_yYHVG-3" value="Avatar: []byte" style="text;strokeColor=none;fillColor=none;align=left;verticalAlign=top;spacingLeft=4;spacingRight=4;overflow=hidden;rotatable=0;points=[[0,0.5],[1,0.5]];portConstraint=eastwest;" parent="Ooq9MZfTdX-30O_yYHVG-2" vertex="1"><mxGeometry y="20" width="160" height="26" as="geometry"/></mxCell><mxCell id="Ooq9MZfTdX-30O_yYHVG-4" value="Username: String" style="text;strokeColor=none;fillColor=none;align=left;verticalAlign=top;spacingLeft=4;spacingRight=4;overflow=hidden;rotatable=0;points=[[0,0.5],[1,0.5]];portConstraint=eastwest;" parent="Ooq9MZfTdX-30O_yYHVG-2" vertex="1"><mxGeometry y="46" width="160" height="26" as="geometry"/></mxCell><mxCell id="Ooq9MZfTdX-30O_yYHVG-5" value="Full_name: String" style="text;strokeColor=none;fillColor=none;align=left;verticalAlign=top;spacingLeft=4;spacingRight=4;overflow=hidden;rotatable=0;points=[[0,0.5],[1,0.5]];portConstraint=eastwest;" parent="Ooq9MZfTdX-30O_yYHVG-2" vertex="1"><mxGeometry y="72" width="160" height="28" as="geometry"/></mxCell><mxCell id="Ooq9MZfTdX-30O_yYHVG-7" value="Email: String" style="text;strokeColor=none;fillColor=none;align=left;verticalAlign=top;spacingLeft=4;spacingRight=4;overflow=hidden;rotatable=0;points=[[0,0.5],[1,0.5]];portConstraint=eastwest;" parent="Ooq9MZfTdX-30O_yYHVG-2" vertex="1"><mxGeometry y="100" width="160" height="30" as="geometry"/></mxCell><mxCell id="Ooq9MZfTdX-30O_yYHVG-9" value="Last login: LocalDateTime" style="text;strokeColor=none;fillColor=none;align=left;verticalAlign=top;spacingLeft=4;spacingRight=4;overflow=hidden;rotatable=0;points=[[0,0.5],[1,0.5]];portConstraint=eastwest;" parent="Ooq9MZfTdX-30O_yYHVG-2" vertex="1"><mxGeometry y="130" width="160" height="30" as="geometry"/></mxCell><mxCell id="Ooq9MZfTdX-30O_yYHVG-10" value="Last failed: LocalDateTime" style="text;strokeColor=none;fillColor=none;align=left;verticalAlign=top;spacingLeft=4;spacingRight=4;overflow=hidden;rotatable=0;points=[[0,0.5],[1,0.5]];portConstraint=eastwest;" parent="Ooq9MZfTdX-30O_yYHVG-2" vertex="1"><mxGeometry y="160" width="160" height="30" as="geometry"/></mxCell><mxCell id="Ooq9MZfTdX-30O_yYHVG-11" value="Current failed logins: int" style="text;strokeColor=none;fillColor=none;align=left;verticalAlign=top;spacingLeft=4;spacingRight=4;overflow=hidden;rotatable=0;points=[[0,0.5],[1,0.5]];portConstraint=eastwest;" parent="Ooq9MZfTdX-30O_yYHVG-2" vertex="1"><mxGeometry y="190" width="160" height="30" as="geometry"/></mxCell><mxCell id="2G7QyxXY0g-MNs9BxpqW-82" value="User: User" style="text;strokeColor=none;fillColor=none;align=left;verticalAlign=top;spacingLeft=4;spacingRight=4;overflow=hidden;rotatable=0;points=[[0,0.5],[1,0.5]];portConstraint=eastwest;" parent="Ooq9MZfTdX-30O_yYHVG-2" vertex="1"><mxGeometry y="220" width="160" height="30" as="geometry"/></mxCell><mxCell id="Ooq9MZfTdX-30O_yYHVG-20" value="UserPreferences" style="swimlane;fontStyle=0;childLayout=stackLayout;horizontal=1;startSize=20;fillColor=none;horizontalStack=0;resizeParent=1;resizeParentMax=0;resizeLast=0;collapsible=1;marginBottom=0;" parent="1" vertex="1"><mxGeometry x="-337" y="-1606" width="160" height="202" as="geometry"><mxRectangle x="10" y="-1210" width="100" height="26" as="alternateBounds"/></mxGeometry></mxCell><mxCell id="Ooq9MZfTdX-30O_yYHVG-21" value="page_size: int" style="text;strokeColor=none;fillColor=none;align=left;verticalAlign=top;spacingLeft=4;spacingRight=4;overflow=hidden;rotatable=0;points=[[0,0.5],[1,0.5]];portConstraint=eastwest;" parent="Ooq9MZfTdX-30O_yYHVG-20" vertex="1"><mxGeometry y="20" width="160" height="26" as="geometry"/></mxCell><mxCell id="Ooq9MZfTdX-30O_yYHVG-22" value="email_type: String (enum)" style="text;strokeColor=#6F0000;fillColor=#a20025;align=left;verticalAlign=top;spacingLeft=4;spacingRight=4;overflow=hidden;rotatable=0;points=[[0,0.5],[1,0.5]];portConstraint=eastwest;fontColor=#ffffff;" parent="Ooq9MZfTdX-30O_yYHVG-20" vertex="1"><mxGeometry y="46" width="160" height="26" as="geometry"/></mxCell><mxCell id="Ooq9MZfTdX-30O_yYHVG-23" value="language: String (enum)" style="text;strokeColor=#6F0000;fillColor=#a20025;align=left;verticalAlign=top;spacingLeft=4;spacingRight=4;overflow=hidden;rotatable=0;points=[[0,0.5],[1,0.5]];portConstraint=eastwest;fontColor=#ffffff;" parent="Ooq9MZfTdX-30O_yYHVG-20" vertex="1"><mxGeometry y="72" width="160" height="26" as="geometry"/></mxCell><mxCell id="Ooq9MZfTdX-30O_yYHVG-24" value="time_zone: TimeZone" style="text;strokeColor=none;fillColor=none;align=left;verticalAlign=top;spacingLeft=4;spacingRight=4;overflow=hidden;rotatable=0;points=[[0,0.5],[1,0.5]];portConstraint=eastwest;" parent="Ooq9MZfTdX-30O_yYHVG-20" vertex="1"><mxGeometry y="98" width="160" height="26" as="geometry"/></mxCell><mxCell id="Ooq9MZfTdX-30O_yYHVG-25" value="my_changes: enum" style="text;strokeColor=#6F0000;fillColor=#a20025;align=left;verticalAlign=top;spacingLeft=4;spacingRight=4;overflow=hidden;rotatable=0;points=[[0,0.5],[1,0.5]];portConstraint=eastwest;fontColor=#ffffff;" parent="Ooq9MZfTdX-30O_yYHVG-20" vertex="1"><mxGeometry y="124" width="160" height="26" as="geometry"/></mxCell><mxCell id="Ooq9MZfTdX-30O_yYHVG-26" value="external_links: enum" style="text;strokeColor=#6F0000;fillColor=#a20025;align=left;verticalAlign=top;spacingLeft=4;spacingRight=4;overflow=hidden;rotatable=0;points=[[0,0.5],[1,0.5]];portConstraint=eastwest;fontColor=#ffffff;" parent="Ooq9MZfTdX-30O_yYHVG-20" vertex="1"><mxGeometry y="150" width="160" height="26" as="geometry"/></mxCell><mxCell id="2G7QyxXY0g-MNs9BxpqW-87" value="User: User" style="text;strokeColor=none;fillColor=none;align=left;verticalAlign=top;spacingLeft=4;spacingRight=4;overflow=hidden;rotatable=0;points=[[0,0.5],[1,0.5]];portConstraint=eastwest;" parent="Ooq9MZfTdX-30O_yYHVG-20" vertex="1"><mxGeometry y="176" width="160" height="26" as="geometry"/></mxCell><mxCell id="Ooq9MZfTdX-30O_yYHVG-47" value="Role" style="swimlane;fontStyle=0;childLayout=stackLayout;horizontal=1;startSize=20;fillColor=none;horizontalStack=0;resizeParent=1;resizeParentMax=0;resizeLast=0;collapsible=1;marginBottom=0;" parent="1" vertex="1"><mxGeometry x="-300" y="-1330" width="160" height="46" as="geometry"><mxRectangle x="10" y="-1210" width="100" height="26" as="alternateBounds"/></mxGeometry></mxCell><mxCell id="Ooq9MZfTdX-30O_yYHVG-48" value="name: String" style="text;strokeColor=none;fillColor=none;align=left;verticalAlign=top;spacingLeft=4;spacingRight=4;overflow=hidden;rotatable=0;points=[[0,0.5],[1,0.5]];portConstraint=eastwest;" parent="Ooq9MZfTdX-30O_yYHVG-47" vertex="1"><mxGeometry y="20" width="160" height="26" as="geometry"/></mxCell><mxCell id="Ooq9MZfTdX-30O_yYHVG-39" value="UserGroup" style="swimlane;fontStyle=0;childLayout=stackLayout;horizontal=1;startSize=20;fillColor=none;horizontalStack=0;resizeParent=1;resizeParentMax=0;resizeLast=0;collapsible=1;marginBottom=0;" parent="1" vertex="1"><mxGeometry x="-300" y="-1270" width="160" height="46" as="geometry"><mxRectangle x="10" y="-1210" width="100" height="26" as="alternateBounds"/></mxGeometry></mxCell><mxCell id="Ooq9MZfTdX-30O_yYHVG-40" value="name: String" style="text;strokeColor=none;fillColor=none;align=left;verticalAlign=top;spacingLeft=4;spacingRight=4;overflow=hidden;rotatable=0;points=[[0,0.5],[1,0.5]];portConstraint=eastwest;" parent="Ooq9MZfTdX-30O_yYHVG-39" vertex="1"><mxGeometry y="20" width="160" height="26" as="geometry"/></mxCell><mxCell id="2G7QyxXY0g-MNs9BxpqW-138" style="edgeStyle=orthogonalEdgeStyle;rounded=0;orthogonalLoop=1;jettySize=auto;html=1;entryX=0;entryY=0.25;entryDx=0;entryDy=0;jumpStyle=arc;" parent="1" source="Ooq9MZfTdX-30O_yYHVG-67" target="2G7QyxXY0g-MNs9BxpqW-124" edge="1"><mxGeometry relative="1" as="geometry"/></mxCell><mxCell id="2G7QyxXY0g-MNs9BxpqW-139" style="edgeStyle=orthogonalEdgeStyle;rounded=0;orthogonalLoop=1;jettySize=auto;html=1;entryX=0;entryY=0.25;entryDx=0;entryDy=0;jumpStyle=arc;" parent="1" source="Ooq9MZfTdX-30O_yYHVG-68" target="2G7QyxXY0g-MNs9BxpqW-121" edge="1"><mxGeometry relative="1" as="geometry"/></mxCell><mxCell id="2G7QyxXY0g-MNs9BxpqW-140" style="edgeStyle=orthogonalEdgeStyle;rounded=0;orthogonalLoop=1;jettySize=auto;html=1;entryX=0.25;entryY=0;entryDx=0;entryDy=0;exitX=1;exitY=0.5;exitDx=0;exitDy=0;jumpStyle=arc;" parent="1" source="2G7QyxXY0g-MNs9BxpqW-117" target="Ooq9MZfTdX-30O_yYHVG-51" edge="1"><mxGeometry relative="1" as="geometry"><Array as="points"><mxPoint x="1230" y="-731"/><mxPoint x="1230" y="-950"/><mxPoint x="1047" y="-950"/><mxPoint x="1047" y="-1150"/><mxPoint x="1107" y="-1150"/></Array></mxGeometry></mxCell><mxCell id="2G7QyxXY0g-MNs9BxpqW-142" style="edgeStyle=orthogonalEdgeStyle;rounded=0;orthogonalLoop=1;jettySize=auto;html=1;entryX=0.994;entryY=0.073;entryDx=0;entryDy=0;entryPerimeter=0;jumpStyle=arc;" parent="1" source="2G7QyxXY0g-MNs9BxpqW-55" target="Ooq9MZfTdX-30O_yYHVG-12" edge="1"><mxGeometry relative="1" as="geometry"><Array as="points"><mxPoint x="-165" y="-429"/><mxPoint x="-165" y="-1140"/><mxPoint x="-370" y="-1140"/><mxPoint x="-370" y="-1325"/></Array></mxGeometry></mxCell><mxCell id="Ooq9MZfTdX-30O_yYHVG-101" value="TicketPeople" style="swimlane;fontStyle=0;childLayout=stackLayout;horizontal=1;startSize=20;fillColor=none;horizontalStack=0;resizeParent=1;resizeParentMax=0;resizeLast=0;collapsible=1;marginBottom=0;" parent="1" vertex="1"><mxGeometry x="1170" y="-1324" width="180" height="150" as="geometry"><mxRectangle x="10" y="-1210" width="100" height="26" as="alternateBounds"/></mxGeometry></mxCell><mxCell id="Ooq9MZfTdX-30O_yYHVG-102" value="assignee: User" style="text;strokeColor=none;fillColor=none;align=left;verticalAlign=top;spacingLeft=4;spacingRight=4;overflow=hidden;rotatable=0;points=[[0,0.5],[1,0.5]];portConstraint=eastwest;" parent="Ooq9MZfTdX-30O_yYHVG-101" vertex="1"><mxGeometry y="20" width="180" height="26" as="geometry"/></mxCell><mxCell id="Ooq9MZfTdX-30O_yYHVG-103" value="reporter: User" style="text;strokeColor=none;fillColor=none;align=left;verticalAlign=top;spacingLeft=4;spacingRight=4;overflow=hidden;rotatable=0;points=[[0,0.5],[1,0.5]];portConstraint=eastwest;" parent="Ooq9MZfTdX-30O_yYHVG-101" vertex="1"><mxGeometry y="46" width="180" height="26" as="geometry"/></mxCell><mxCell id="Ooq9MZfTdX-30O_yYHVG-104" value="votes: List&lt;User&gt;" style="text;strokeColor=none;fillColor=none;align=left;verticalAlign=top;spacingLeft=4;spacingRight=4;overflow=hidden;rotatable=0;points=[[0,0.5],[1,0.5]];portConstraint=eastwest;" parent="Ooq9MZfTdX-30O_yYHVG-101" vertex="1"><mxGeometry y="72" width="180" height="26" as="geometry"/></mxCell><mxCell id="Ooq9MZfTdX-30O_yYHVG-105" value="watchers: List&lt;User&gt;" style="text;strokeColor=none;fillColor=none;align=left;verticalAlign=top;spacingLeft=4;spacingRight=4;overflow=hidden;rotatable=0;points=[[0,0.5],[1,0.5]];portConstraint=eastwest;" parent="Ooq9MZfTdX-30O_yYHVG-101" vertex="1"><mxGeometry y="98" width="180" height="26" as="geometry"/></mxCell><mxCell id="2G7QyxXY0g-MNs9BxpqW-111" value="Ticket: Ticket" style="text;strokeColor=none;fillColor=none;align=left;verticalAlign=top;spacingLeft=4;spacingRight=4;overflow=hidden;rotatable=0;points=[[0,0.5],[1,0.5]];portConstraint=eastwest;" parent="Ooq9MZfTdX-30O_yYHVG-101" vertex="1"><mxGeometry y="124" width="180" height="26" as="geometry"/></mxCell><mxCell id="Ooq9MZfTdX-30O_yYHVG-51" value="Ticket" style="swimlane;fontStyle=0;childLayout=stackLayout;horizontal=1;startSize=20;fillColor=none;horizontalStack=0;resizeParent=1;resizeParentMax=0;resizeLast=0;collapsible=1;marginBottom=0;" parent="1" vertex="1"><mxGeometry x="1067" y="-1130" width="160" height="98" as="geometry"><mxRectangle x="10" y="-1210" width="100" height="26" as="alternateBounds"/></mxGeometry></mxCell><mxCell id="Ooq9MZfTdX-30O_yYHVG-53" value="project: Project" style="text;align=left;verticalAlign=top;spacingLeft=4;spacingRight=4;overflow=hidden;rotatable=0;points=[[0,0.5],[1,0.5]];portConstraint=eastwest;" parent="Ooq9MZfTdX-30O_yYHVG-51" vertex="1"><mxGeometry y="20" width="160" height="26" as="geometry"/></mxCell><mxCell id="Ooq9MZfTdX-30O_yYHVG-54" value="summary: String" style="text;strokeColor=none;fillColor=none;align=left;verticalAlign=top;spacingLeft=4;spacingRight=4;overflow=hidden;rotatable=0;points=[[0,0.5],[1,0.5]];portConstraint=eastwest;" parent="Ooq9MZfTdX-30O_yYHVG-51" vertex="1"><mxGeometry y="46" width="160" height="26" as="geometry"/></mxCell><mxCell id="Ooq9MZfTdX-30O_yYHVG-55" value="time_zone: TimeZone" style="text;strokeColor=none;fillColor=none;align=left;verticalAlign=top;spacingLeft=4;spacingRight=4;overflow=hidden;rotatable=0;points=[[0,0.5],[1,0.5]];portConstraint=eastwest;" parent="Ooq9MZfTdX-30O_yYHVG-51" vertex="1"><mxGeometry y="72" width="160" height="26" as="geometry"/></mxCell><mxCell id="Ooq9MZfTdX-30O_yYHVG-134" value="TicketActivity" style="swimlane;fontStyle=0;childLayout=stackLayout;horizontal=1;startSize=20;fillColor=none;horizontalStack=0;resizeParent=1;resizeParentMax=0;resizeLast=0;collapsible=1;marginBottom=0;" parent="1" vertex="1"><mxGeometry x="650" y="-1070" width="260" height="150" as="geometry"><mxRectangle x="10" y="-1210" width="100" height="26" as="alternateBounds"/></mxGeometry></mxCell><mxCell id="Ooq9MZfTdX-30O_yYHVG-135" value="comments: List&lt;Comment&gt;" style="text;align=left;verticalAlign=top;spacingLeft=4;spacingRight=4;overflow=hidden;rotatable=0;points=[[0,0.5],[1,0.5]];portConstraint=eastwest;" parent="Ooq9MZfTdX-30O_yYHVG-134" vertex="1"><mxGeometry y="20" width="260" height="26" as="geometry"/></mxCell><mxCell id="Ooq9MZfTdX-30O_yYHVG-137" value="history: List&lt;HistoryRecord&gt;" style="text;align=left;verticalAlign=top;spacingLeft=4;spacingRight=4;overflow=hidden;rotatable=0;points=[[0,0.5],[1,0.5]];portConstraint=eastwest;" parent="Ooq9MZfTdX-30O_yYHVG-134" vertex="1"><mxGeometry y="46" width="260" height="26" as="geometry"/></mxCell><mxCell id="Ooq9MZfTdX-30O_yYHVG-138" value="sla_history: List&lt;SlaHistoryRecord&gt;" style="text;align=left;verticalAlign=top;spacingLeft=4;spacingRight=4;overflow=hidden;rotatable=0;points=[[0,0.5],[1,0.5]];portConstraint=eastwest;" parent="Ooq9MZfTdX-30O_yYHVG-134" vertex="1"><mxGeometry y="72" width="260" height="26" as="geometry"/></mxCell><mxCell id="Ooq9MZfTdX-30O_yYHVG-144" value="work_log_history: List&lt;WorkLogHistoryRecord&gt;" style="text;strokeColor=none;fillColor=none;align=left;verticalAlign=top;spacingLeft=4;spacingRight=4;overflow=hidden;rotatable=0;points=[[0,0.5],[1,0.5]];portConstraint=eastwest;" parent="Ooq9MZfTdX-30O_yYHVG-134" vertex="1"><mxGeometry y="98" width="260" height="26" as="geometry"/></mxCell><mxCell id="2G7QyxXY0g-MNs9BxpqW-91" value="Ticket: Ticket" style="text;strokeColor=none;fillColor=none;align=left;verticalAlign=top;spacingLeft=4;spacingRight=4;overflow=hidden;rotatable=0;points=[[0,0.5],[1,0.5]];portConstraint=eastwest;" parent="Ooq9MZfTdX-30O_yYHVG-134" vertex="1"><mxGeometry y="124" width="260" height="26" as="geometry"/></mxCell><mxCell id="Ooq9MZfTdX-30O_yYHVG-75" value="TicketInfo" style="swimlane;fontStyle=0;childLayout=stackLayout;horizontal=1;startSize=20;fillColor=none;horizontalStack=0;resizeParent=1;resizeParentMax=0;resizeLast=0;collapsible=1;marginBottom=0;" parent="1" vertex="1"><mxGeometry x="1310" y="-1100" width="180" height="462" as="geometry"><mxRectangle x="10" y="-1210" width="100" height="26" as="alternateBounds"/></mxGeometry></mxCell><mxCell id="Ooq9MZfTdX-30O_yYHVG-76" value="customer_code: GpCode" style="text;align=left;verticalAlign=top;spacingLeft=4;spacingRight=4;overflow=hidden;rotatable=0;points=[[0,0.5],[1,0.5]];portConstraint=eastwest;" parent="Ooq9MZfTdX-30O_yYHVG-75" vertex="1"><mxGeometry y="20" width="180" height="26" as="geometry"/></mxCell><mxCell id="Ooq9MZfTdX-30O_yYHVG-77" value="support_code: GpCode" style="text;align=left;verticalAlign=top;spacingLeft=4;spacingRight=4;overflow=hidden;rotatable=0;points=[[0,0.5],[1,0.5]];portConstraint=eastwest;" parent="Ooq9MZfTdX-30O_yYHVG-75" vertex="1"><mxGeometry y="46" width="180" height="26" as="geometry"/></mxCell><mxCell id="Ooq9MZfTdX-30O_yYHVG-78" value="explanation_of_priority: String" style="text;strokeColor=none;fillColor=none;align=left;verticalAlign=top;spacingLeft=4;spacingRight=4;overflow=hidden;rotatable=0;points=[[0,0.5],[1,0.5]];portConstraint=eastwest;" parent="Ooq9MZfTdX-30O_yYHVG-75" vertex="1"><mxGeometry y="72" width="180" height="26" as="geometry"/></mxCell><mxCell id="Ooq9MZfTdX-30O_yYHVG-79" value="test_cycle: TestingCycle" style="text;align=left;verticalAlign=top;spacingLeft=4;spacingRight=4;overflow=hidden;rotatable=0;points=[[0,0.5],[1,0.5]];portConstraint=eastwest;" parent="Ooq9MZfTdX-30O_yYHVG-75" vertex="1"><mxGeometry y="98" width="180" height="26" as="geometry"/></mxCell><mxCell id="Ooq9MZfTdX-30O_yYHVG-80" value="server_url: Url" style="text;strokeColor=none;fillColor=none;align=left;verticalAlign=top;spacingLeft=4;spacingRight=4;overflow=hidden;rotatable=0;points=[[0,0.5],[1,0.5]];portConstraint=eastwest;" parent="Ooq9MZfTdX-30O_yYHVG-75" vertex="1"><mxGeometry y="124" width="180" height="26" as="geometry"/></mxCell><mxCell id="Ooq9MZfTdX-30O_yYHVG-81" value="environment: String" style="text;strokeColor=none;fillColor=none;align=left;verticalAlign=top;spacingLeft=4;spacingRight=4;overflow=hidden;rotatable=0;points=[[0,0.5],[1,0.5]];portConstraint=eastwest;" parent="Ooq9MZfTdX-30O_yYHVG-75" vertex="1"><mxGeometry y="150" width="180" height="26" as="geometry"/></mxCell><mxCell id="Ooq9MZfTdX-30O_yYHVG-82" value="description: String" style="text;strokeColor=none;fillColor=none;align=left;verticalAlign=top;spacingLeft=4;spacingRight=4;overflow=hidden;rotatable=0;points=[[0,0.5],[1,0.5]];portConstraint=eastwest;" parent="Ooq9MZfTdX-30O_yYHVG-75" vertex="1"><mxGeometry y="176" width="180" height="26" as="geometry"/></mxCell><mxCell id="Ooq9MZfTdX-30O_yYHVG-83" value="steps_to_reproduce: String" style="text;strokeColor=none;fillColor=none;align=left;verticalAlign=top;spacingLeft=4;spacingRight=4;overflow=hidden;rotatable=0;points=[[0,0.5],[1,0.5]];portConstraint=eastwest;" parent="Ooq9MZfTdX-30O_yYHVG-75" vertex="1"><mxGeometry y="202" width="180" height="26" as="geometry"/></mxCell><mxCell id="Ooq9MZfTdX-30O_yYHVG-84" value="dev_test_case: String" style="text;strokeColor=none;fillColor=none;align=left;verticalAlign=top;spacingLeft=4;spacingRight=4;overflow=hidden;rotatable=0;points=[[0,0.5],[1,0.5]];portConstraint=eastwest;" parent="Ooq9MZfTdX-30O_yYHVG-75" vertex="1"><mxGeometry y="228" width="180" height="26" as="geometry"/></mxCell><mxCell id="Ooq9MZfTdX-30O_yYHVG-85" value="stacktrace: String" style="text;strokeColor=none;fillColor=none;align=left;verticalAlign=top;spacingLeft=4;spacingRight=4;overflow=hidden;rotatable=0;points=[[0,0.5],[1,0.5]];portConstraint=eastwest;" parent="Ooq9MZfTdX-30O_yYHVG-75" vertex="1"><mxGeometry y="254" width="180" height="26" as="geometry"/></mxCell><mxCell id="Ooq9MZfTdX-30O_yYHVG-86" value="bill_to_gp_code: GpCode" style="text;strokeColor=none;fillColor=none;align=left;verticalAlign=top;spacingLeft=4;spacingRight=4;overflow=hidden;rotatable=0;points=[[0,0.5],[1,0.5]];portConstraint=eastwest;" parent="Ooq9MZfTdX-30O_yYHVG-75" vertex="1"><mxGeometry y="280" width="180" height="26" as="geometry"/></mxCell><mxCell id="Ooq9MZfTdX-30O_yYHVG-96" value="complexity_rate: String" style="text;strokeColor=none;fillColor=none;align=left;verticalAlign=top;spacingLeft=4;spacingRight=4;overflow=hidden;rotatable=0;points=[[0,0.5],[1,0.5]];portConstraint=eastwest;" parent="Ooq9MZfTdX-30O_yYHVG-75" vertex="1"><mxGeometry y="306" width="180" height="26" as="geometry"/></mxCell><mxCell id="Ooq9MZfTdX-30O_yYHVG-97" value="sprint: Sprint" style="text;align=left;verticalAlign=top;spacingLeft=4;spacingRight=4;overflow=hidden;rotatable=0;points=[[0,0.5],[1,0.5]];portConstraint=eastwest;" parent="Ooq9MZfTdX-30O_yYHVG-75" vertex="1"><mxGeometry y="332" width="180" height="26" as="geometry"/></mxCell><mxCell id="Ooq9MZfTdX-30O_yYHVG-98" value="complexity_rate: String" style="text;strokeColor=none;fillColor=none;align=left;verticalAlign=top;spacingLeft=4;spacingRight=4;overflow=hidden;rotatable=0;points=[[0,0.5],[1,0.5]];portConstraint=eastwest;" parent="Ooq9MZfTdX-30O_yYHVG-75" vertex="1"><mxGeometry y="358" width="180" height="26" as="geometry"/></mxCell><mxCell id="Ooq9MZfTdX-30O_yYHVG-99" value="target_integration_build: String" style="text;strokeColor=none;fillColor=none;align=left;verticalAlign=top;spacingLeft=4;spacingRight=4;overflow=hidden;rotatable=0;points=[[0,0.5],[1,0.5]];portConstraint=eastwest;" parent="Ooq9MZfTdX-30O_yYHVG-75" vertex="1"><mxGeometry y="384" width="180" height="26" as="geometry"/></mxCell><mxCell id="Ooq9MZfTdX-30O_yYHVG-100" value="tested_integration_build: String" style="text;strokeColor=none;fillColor=none;align=left;verticalAlign=top;spacingLeft=4;spacingRight=4;overflow=hidden;rotatable=0;points=[[0,0.5],[1,0.5]];portConstraint=eastwest;" parent="Ooq9MZfTdX-30O_yYHVG-75" vertex="1"><mxGeometry y="410" width="180" height="26" as="geometry"/></mxCell><mxCell id="Ooq9MZfTdX-30O_yYHVG-145" value="test_case: String" style="text;strokeColor=none;fillColor=none;align=left;verticalAlign=top;spacingLeft=4;spacingRight=4;overflow=hidden;rotatable=0;points=[[0,0.5],[1,0.5]];portConstraint=eastwest;" parent="Ooq9MZfTdX-30O_yYHVG-75" vertex="1"><mxGeometry y="436" width="180" height="26" as="geometry"/></mxCell><mxCell id="2G7QyxXY0g-MNs9BxpqW-25" value="GpCode" style="swimlane;fontStyle=0;childLayout=stackLayout;horizontal=1;startSize=20;fillColor=none;horizontalStack=0;resizeParent=1;resizeParentMax=0;resizeLast=0;collapsible=1;marginBottom=0;" parent="1" vertex="1"><mxGeometry x="1522" y="-818" width="200" height="100" as="geometry"><mxRectangle x="10" y="-1210" width="100" height="26" as="alternateBounds"/></mxGeometry></mxCell><mxCell id="2G7QyxXY0g-MNs9BxpqW-26" value="Name: String" style="text;strokeColor=none;fillColor=none;align=left;verticalAlign=top;spacingLeft=4;spacingRight=4;overflow=hidden;rotatable=0;points=[[0,0.5],[1,0.5]];portConstraint=eastwest;" parent="2G7QyxXY0g-MNs9BxpqW-25" vertex="1"><mxGeometry y="20" width="200" height="26" as="geometry"/></mxCell><mxCell id="2G7QyxXY0g-MNs9BxpqW-27" value="Start date: LocalDateTime" style="text;strokeColor=none;fillColor=none;align=left;verticalAlign=top;spacingLeft=4;spacingRight=4;overflow=hidden;rotatable=0;points=[[0,0.5],[1,0.5]];portConstraint=eastwest;" parent="2G7QyxXY0g-MNs9BxpqW-25" vertex="1"><mxGeometry y="46" width="200" height="26" as="geometry"/></mxCell><mxCell id="2G7QyxXY0g-MNs9BxpqW-28" value="Expiration time: LocalDateTime" style="text;strokeColor=none;fillColor=none;align=left;verticalAlign=top;spacingLeft=4;spacingRight=4;overflow=hidden;rotatable=0;points=[[0,0.5],[1,0.5]];portConstraint=eastwest;" parent="2G7QyxXY0g-MNs9BxpqW-25" vertex="1"><mxGeometry y="72" width="200" height="28" as="geometry"/></mxCell><mxCell id="Ooq9MZfTdX-30O_yYHVG-116" value="TicketRootCause" style="swimlane;fontStyle=0;childLayout=stackLayout;horizontal=1;startSize=20;fillColor=none;horizontalStack=0;resizeParent=1;resizeParentMax=0;resizeLast=0;collapsible=1;marginBottom=0;" parent="1" vertex="1"><mxGeometry x="1430" y="-1370" width="180" height="228" as="geometry"><mxRectangle x="10" y="-1210" width="100" height="26" as="alternateBounds"/></mxGeometry></mxCell><mxCell id="Ooq9MZfTdX-30O_yYHVG-117" value="root_cause: RootCause" style="text;align=left;verticalAlign=top;spacingLeft=4;spacingRight=4;overflow=hidden;rotatable=0;points=[[0,0.5],[1,0.5]];portConstraint=eastwest;" parent="Ooq9MZfTdX-30O_yYHVG-116" vertex="1"><mxGeometry y="20" width="180" height="26" as="geometry"/></mxCell><mxCell id="Ooq9MZfTdX-30O_yYHVG-118" value="root_cause_definition: String" style="text;strokeColor=none;fillColor=none;align=left;verticalAlign=top;spacingLeft=4;spacingRight=4;overflow=hidden;rotatable=0;points=[[0,0.5],[1,0.5]];portConstraint=eastwest;" parent="Ooq9MZfTdX-30O_yYHVG-116" vertex="1"><mxGeometry y="46" width="180" height="26" as="geometry"/></mxCell><mxCell id="Ooq9MZfTdX-30O_yYHVG-119" value="impacted_scenarios: String" style="text;strokeColor=none;fillColor=none;align=left;verticalAlign=top;spacingLeft=4;spacingRight=4;overflow=hidden;rotatable=0;points=[[0,0.5],[1,0.5]];portConstraint=eastwest;" parent="Ooq9MZfTdX-30O_yYHVG-116" vertex="1"><mxGeometry y="72" width="180" height="26" as="geometry"/></mxCell><mxCell id="Ooq9MZfTdX-30O_yYHVG-120" value="workaround: String" style="text;strokeColor=none;fillColor=none;align=left;verticalAlign=top;spacingLeft=4;spacingRight=4;overflow=hidden;rotatable=0;points=[[0,0.5],[1,0.5]];portConstraint=eastwest;" parent="Ooq9MZfTdX-30O_yYHVG-116" vertex="1"><mxGeometry y="98" width="180" height="26" as="geometry"/></mxCell><mxCell id="Ooq9MZfTdX-30O_yYHVG-121" value="fix_plan: String" style="text;strokeColor=none;fillColor=none;align=left;verticalAlign=top;spacingLeft=4;spacingRight=4;overflow=hidden;rotatable=0;points=[[0,0.5],[1,0.5]];portConstraint=eastwest;" parent="Ooq9MZfTdX-30O_yYHVG-116" vertex="1"><mxGeometry y="124" width="180" height="26" as="geometry"/></mxCell><mxCell id="Ooq9MZfTdX-30O_yYHVG-122" value="loe: WorkTimeLog" style="text;strokeColor=none;fillColor=none;align=left;verticalAlign=top;spacingLeft=4;spacingRight=4;overflow=hidden;rotatable=0;points=[[0,0.5],[1,0.5]];portConstraint=eastwest;" parent="Ooq9MZfTdX-30O_yYHVG-116" vertex="1"><mxGeometry y="150" width="180" height="26" as="geometry"/></mxCell><mxCell id="Ooq9MZfTdX-30O_yYHVG-123" value="risk: TicketRisk" style="text;align=left;verticalAlign=top;spacingLeft=4;spacingRight=4;overflow=hidden;rotatable=0;points=[[0,0.5],[1,0.5]];portConstraint=eastwest;" parent="Ooq9MZfTdX-30O_yYHVG-116" vertex="1"><mxGeometry y="176" width="180" height="26" as="geometry"/></mxCell><mxCell id="2G7QyxXY0g-MNs9BxpqW-119" value="Ticket: Ticket" style="text;strokeColor=none;fillColor=none;align=left;verticalAlign=top;spacingLeft=4;spacingRight=4;overflow=hidden;rotatable=0;points=[[0,0.5],[1,0.5]];portConstraint=eastwest;" parent="Ooq9MZfTdX-30O_yYHVG-116" vertex="1"><mxGeometry y="202" width="180" height="26" as="geometry"/></mxCell><mxCell id="2G7QyxXY0g-MNs9BxpqW-130" value="TicketRisk &lt;ENUM&gt;" style="swimlane;fontStyle=0;childLayout=stackLayout;horizontal=1;startSize=20;fillColor=none;horizontalStack=0;resizeParent=1;resizeParentMax=0;resizeLast=0;collapsible=1;marginBottom=0;" parent="1" vertex="1"><mxGeometry x="1541" y="-1130" width="200" height="48" as="geometry"><mxRectangle x="10" y="-1210" width="100" height="26" as="alternateBounds"/></mxGeometry></mxCell><mxCell id="2G7QyxXY0g-MNs9BxpqW-131" value="Check (ticketRisk.txt)&#10;" style="text;strokeColor=none;fillColor=none;align=left;verticalAlign=top;spacingLeft=4;spacingRight=4;overflow=hidden;rotatable=0;points=[[0,0.5],[1,0.5]];portConstraint=eastwest;" parent="2G7QyxXY0g-MNs9BxpqW-130" vertex="1"><mxGeometry y="20" width="200" height="28" as="geometry"/></mxCell><mxCell id="Ooq9MZfTdX-30O_yYHVG-63" value="TicketDetails" style="swimlane;fontStyle=0;childLayout=stackLayout;horizontal=1;startSize=20;fillColor=none;horizontalStack=0;resizeParent=1;resizeParentMax=0;resizeLast=0;collapsible=1;marginBottom=0;" parent="1" vertex="1"><mxGeometry x="1057" y="-492" width="180" height="280" as="geometry"><mxRectangle x="10" y="-1210" width="100" height="26" as="alternateBounds"/></mxGeometry></mxCell><mxCell id="Ooq9MZfTdX-30O_yYHVG-66" value="type: TicketType" style="text;strokeColor=none;fillColor=none;align=left;verticalAlign=top;spacingLeft=4;spacingRight=4;overflow=hidden;rotatable=0;points=[[0,0.5],[1,0.5]];portConstraint=eastwest;" parent="Ooq9MZfTdX-30O_yYHVG-63" vertex="1"><mxGeometry y="20" width="180" height="26" as="geometry"/></mxCell><mxCell id="Ooq9MZfTdX-30O_yYHVG-67" value="priority: TicketPriority" style="text;align=left;verticalAlign=top;spacingLeft=4;spacingRight=4;overflow=hidden;rotatable=0;points=[[0,0.5],[1,0.5]];portConstraint=eastwest;" parent="Ooq9MZfTdX-30O_yYHVG-63" vertex="1"><mxGeometry y="46" width="180" height="26" as="geometry"/></mxCell><mxCell id="Ooq9MZfTdX-30O_yYHVG-68" value="status: TicketStatus" style="text;align=left;verticalAlign=top;spacingLeft=4;spacingRight=4;overflow=hidden;rotatable=0;points=[[0,0.5],[1,0.5]];portConstraint=eastwest;" parent="Ooq9MZfTdX-30O_yYHVG-63" vertex="1"><mxGeometry y="72" width="180" height="26" as="geometry"/></mxCell><mxCell id="Ooq9MZfTdX-30O_yYHVG-69" value="resolution: TicketResolution" style="text;align=left;verticalAlign=top;spacingLeft=4;spacingRight=4;overflow=hidden;rotatable=0;points=[[0,0.5],[1,0.5]];portConstraint=eastwest;" parent="Ooq9MZfTdX-30O_yYHVG-63" vertex="1"><mxGeometry y="98" width="180" height="26" as="geometry"/></mxCell><mxCell id="Ooq9MZfTdX-30O_yYHVG-70" value="components: List&lt;String&gt;" style="text;align=left;verticalAlign=top;spacingLeft=4;spacingRight=4;overflow=hidden;rotatable=0;points=[[0,0.5],[1,0.5]];portConstraint=eastwest;" parent="Ooq9MZfTdX-30O_yYHVG-63" vertex="1"><mxGeometry y="124" width="180" height="26" as="geometry"/></mxCell><mxCell id="Ooq9MZfTdX-30O_yYHVG-71" value="labels: List&lt;String&gt;" style="text;strokeColor=none;fillColor=none;align=left;verticalAlign=top;spacingLeft=4;spacingRight=4;overflow=hidden;rotatable=0;points=[[0,0.5],[1,0.5]];portConstraint=eastwest;" parent="Ooq9MZfTdX-30O_yYHVG-63" vertex="1"><mxGeometry y="150" width="180" height="26" as="geometry"/></mxCell><mxCell id="Ooq9MZfTdX-30O_yYHVG-72" value="affect_versions: List&lt;String&gt;" style="text;strokeColor=none;fillColor=none;align=left;verticalAlign=top;spacingLeft=4;spacingRight=4;overflow=hidden;rotatable=0;points=[[0,0.5],[1,0.5]];portConstraint=eastwest;" parent="Ooq9MZfTdX-30O_yYHVG-63" vertex="1"><mxGeometry y="176" width="180" height="26" as="geometry"/></mxCell><mxCell id="Ooq9MZfTdX-30O_yYHVG-73" value="fix_versions: List&lt;String&gt;" style="text;strokeColor=none;fillColor=none;align=left;verticalAlign=top;spacingLeft=4;spacingRight=4;overflow=hidden;rotatable=0;points=[[0,0.5],[1,0.5]];portConstraint=eastwest;" parent="Ooq9MZfTdX-30O_yYHVG-63" vertex="1"><mxGeometry y="202" width="180" height="26" as="geometry"/></mxCell><mxCell id="2G7QyxXY0g-MNs9BxpqW-93" value="Ticket: Ticket" style="text;strokeColor=none;fillColor=none;align=left;verticalAlign=top;spacingLeft=4;spacingRight=4;overflow=hidden;rotatable=0;points=[[0,0.5],[1,0.5]];portConstraint=eastwest;" parent="Ooq9MZfTdX-30O_yYHVG-63" vertex="1"><mxGeometry y="228" width="180" height="26" as="geometry"/></mxCell><mxCell id="2G7QyxXY0g-MNs9BxpqW-97" value="Attachments: List&lt;TicketAttachments" style="text;strokeColor=none;fillColor=none;align=left;verticalAlign=top;spacingLeft=4;spacingRight=4;overflow=hidden;rotatable=0;points=[[0,0.5],[1,0.5]];portConstraint=eastwest;" parent="Ooq9MZfTdX-30O_yYHVG-63" vertex="1"><mxGeometry y="254" width="180" height="26" as="geometry"/></mxCell><mxCell id="2G7QyxXY0g-MNs9BxpqW-33" value="TicketType &lt;ENUM&gt;" style="swimlane;fontStyle=0;childLayout=stackLayout;horizontal=1;startSize=20;fillColor=none;horizontalStack=0;resizeParent=1;resizeParentMax=0;resizeLast=0;collapsible=1;marginBottom=0;" parent="1" vertex="1"><mxGeometry x="1290" y="-520" width="200" height="48" as="geometry"><mxRectangle x="10" y="-1210" width="100" height="26" as="alternateBounds"/></mxGeometry></mxCell><mxCell id="2G7QyxXY0g-MNs9BxpqW-34" value="Check (ticketTypes.txt)&#10;" style="text;strokeColor=none;fillColor=none;align=left;verticalAlign=top;spacingLeft=4;spacingRight=4;overflow=hidden;rotatable=0;points=[[0,0.5],[1,0.5]];portConstraint=eastwest;" parent="2G7QyxXY0g-MNs9BxpqW-33" vertex="1"><mxGeometry y="20" width="200" height="28" as="geometry"/></mxCell><mxCell id="2G7QyxXY0g-MNs9BxpqW-127" value="TicketResolution &lt;ENUM&gt;" style="swimlane;fontStyle=0;childLayout=stackLayout;horizontal=1;startSize=20;fillColor=none;horizontalStack=0;resizeParent=1;resizeParentMax=0;resizeLast=0;collapsible=1;marginBottom=0;" parent="1" vertex="1"><mxGeometry x="1290" y="-332" width="200" height="48" as="geometry"><mxRectangle x="10" y="-1210" width="100" height="26" as="alternateBounds"/></mxGeometry></mxCell><mxCell id="2G7QyxXY0g-MNs9BxpqW-128" value="Check (ticketResolutions.txt)&#10;" style="text;strokeColor=none;fillColor=none;align=left;verticalAlign=top;spacingLeft=4;spacingRight=4;overflow=hidden;rotatable=0;points=[[0,0.5],[1,0.5]];portConstraint=eastwest;" parent="2G7QyxXY0g-MNs9BxpqW-127" vertex="1"><mxGeometry y="20" width="200" height="28" as="geometry"/></mxCell><mxCell id="2G7QyxXY0g-MNs9BxpqW-121" value="TicketStatus &lt;ENUM&gt;" style="swimlane;fontStyle=0;childLayout=stackLayout;horizontal=1;startSize=20;fillColor=none;horizontalStack=0;resizeParent=1;resizeParentMax=0;resizeLast=0;collapsible=1;marginBottom=0;" parent="1" vertex="1"><mxGeometry x="1290" y="-394" width="200" height="48" as="geometry"><mxRectangle x="10" y="-1210" width="100" height="26" as="alternateBounds"/></mxGeometry></mxCell><mxCell id="2G7QyxXY0g-MNs9BxpqW-122" value="Check (ticketStatuses.txt)&#10;" style="text;strokeColor=none;fillColor=none;align=left;verticalAlign=top;spacingLeft=4;spacingRight=4;overflow=hidden;rotatable=0;points=[[0,0.5],[1,0.5]];portConstraint=eastwest;" parent="2G7QyxXY0g-MNs9BxpqW-121" vertex="1"><mxGeometry y="20" width="200" height="28" as="geometry"/></mxCell><mxCell id="2G7QyxXY0g-MNs9BxpqW-124" value="TicketPriority &lt;ENUM&gt;" style="swimlane;fontStyle=0;childLayout=stackLayout;horizontal=1;startSize=20;fillColor=none;horizontalStack=0;resizeParent=1;resizeParentMax=0;resizeLast=0;collapsible=1;marginBottom=0;" parent="1" vertex="1"><mxGeometry x="1290" y="-458" width="200" height="48" as="geometry"><mxRectangle x="10" y="-1210" width="100" height="26" as="alternateBounds"/></mxGeometry></mxCell><mxCell id="2G7QyxXY0g-MNs9BxpqW-125" value="Check (ticketPriorities.txt)&#10;" style="text;strokeColor=none;fillColor=none;align=left;verticalAlign=top;spacingLeft=4;spacingRight=4;overflow=hidden;rotatable=0;points=[[0,0.5],[1,0.5]];portConstraint=eastwest;" parent="2G7QyxXY0g-MNs9BxpqW-124" vertex="1"><mxGeometry y="20" width="200" height="28" as="geometry"/></mxCell><mxCell id="Ooq9MZfTdX-30O_yYHVG-87" value="TicketAttachment" style="swimlane;fontStyle=0;childLayout=stackLayout;horizontal=1;startSize=20;fillColor=none;horizontalStack=0;resizeParent=1;resizeParentMax=0;resizeLast=0;collapsible=1;marginBottom=0;" parent="1" vertex="1"><mxGeometry x="1290" y="-264" width="180" height="46" as="geometry"><mxRectangle x="10" y="-1210" width="100" height="26" as="alternateBounds"/></mxGeometry></mxCell><mxCell id="Ooq9MZfTdX-30O_yYHVG-88" value="attachment: Object" style="text;strokeColor=none;fillColor=none;align=left;verticalAlign=top;spacingLeft=4;spacingRight=4;overflow=hidden;rotatable=0;points=[[0,0.5],[1,0.5]];portConstraint=eastwest;" parent="Ooq9MZfTdX-30O_yYHVG-87" vertex="1"><mxGeometry y="20" width="180" height="26" as="geometry"/></mxCell><mxCell id="Ooq9MZfTdX-30O_yYHVG-110" value="TicketEstimations" style="swimlane;fontStyle=0;childLayout=stackLayout;horizontal=1;startSize=20;fillColor=none;horizontalStack=0;resizeParent=1;resizeParentMax=0;resizeLast=0;collapsible=1;marginBottom=0;" parent="1" vertex="1"><mxGeometry x="960" y="-894" width="260" height="176" as="geometry"><mxRectangle x="10" y="-1210" width="100" height="26" as="alternateBounds"/></mxGeometry></mxCell><mxCell id="Ooq9MZfTdX-30O_yYHVG-111" value="estimate_start_work_date: LocalDateTime" style="text;strokeColor=none;fillColor=none;align=left;verticalAlign=top;spacingLeft=4;spacingRight=4;overflow=hidden;rotatable=0;points=[[0,0.5],[1,0.5]];portConstraint=eastwest;" parent="Ooq9MZfTdX-30O_yYHVG-110" vertex="1"><mxGeometry y="20" width="260" height="26" as="geometry"/></mxCell><mxCell id="Ooq9MZfTdX-30O_yYHVG-112" value="estimate_complete_work_date: LocalDateTime" style="text;strokeColor=none;fillColor=none;align=left;verticalAlign=top;spacingLeft=4;spacingRight=4;overflow=hidden;rotatable=0;points=[[0,0.5],[1,0.5]];portConstraint=eastwest;" parent="Ooq9MZfTdX-30O_yYHVG-110" vertex="1"><mxGeometry y="46" width="260" height="26" as="geometry"/></mxCell><mxCell id="Ooq9MZfTdX-30O_yYHVG-113" value="original_estimate: WorkTimeLog" style="text;align=left;verticalAlign=top;spacingLeft=4;spacingRight=4;overflow=hidden;rotatable=0;points=[[0,0.5],[1,0.5]];portConstraint=eastwest;" parent="Ooq9MZfTdX-30O_yYHVG-110" vertex="1"><mxGeometry y="72" width="260" height="26" as="geometry"/></mxCell><mxCell id="Ooq9MZfTdX-30O_yYHVG-114" value="remaining_estimate: WorkTimeLog" style="text;align=left;verticalAlign=top;spacingLeft=4;spacingRight=4;overflow=hidden;rotatable=0;points=[[0,0.5],[1,0.5]];portConstraint=eastwest;" parent="Ooq9MZfTdX-30O_yYHVG-110" vertex="1"><mxGeometry y="98" width="260" height="26" as="geometry"/></mxCell><mxCell id="Ooq9MZfTdX-30O_yYHVG-115" value="estimated: WorkTimeLog" style="text;align=left;verticalAlign=top;spacingLeft=4;spacingRight=4;overflow=hidden;rotatable=0;points=[[0,0.5],[1,0.5]];portConstraint=eastwest;" parent="Ooq9MZfTdX-30O_yYHVG-110" vertex="1"><mxGeometry y="124" width="260" height="26" as="geometry"/></mxCell><mxCell id="2G7QyxXY0g-MNs9BxpqW-117" value="Ticket: Ticket" style="text;strokeColor=none;fillColor=none;align=left;verticalAlign=top;spacingLeft=4;spacingRight=4;overflow=hidden;rotatable=0;points=[[0,0.5],[1,0.5]];portConstraint=eastwest;" parent="Ooq9MZfTdX-30O_yYHVG-110" vertex="1"><mxGeometry y="150" width="260" height="26" as="geometry"/></mxCell><mxCell id="2G7QyxXY0g-MNs9BxpqW-56" value="SlaHistoryRecord" style="swimlane;fontStyle=0;childLayout=stackLayout;horizontal=1;startSize=20;fillColor=none;horizontalStack=0;resizeParent=1;resizeParentMax=0;resizeLast=0;collapsible=1;marginBottom=0;" parent="1" vertex="1"><mxGeometry x="704" y="-900" width="220" height="280" as="geometry"><mxRectangle x="10" y="-1210" width="100" height="26" as="alternateBounds"/></mxGeometry></mxCell><mxCell id="2G7QyxXY0g-MNs9BxpqW-57" value="Old state: TicketStatus " style="text;align=left;verticalAlign=top;spacingLeft=4;spacingRight=4;overflow=hidden;rotatable=0;points=[[0,0.5],[1,0.5]];portConstraint=eastwest;" parent="2G7QyxXY0g-MNs9BxpqW-56" vertex="1"><mxGeometry y="20" width="220" height="26" as="geometry"/></mxCell><mxCell id="2G7QyxXY0g-MNs9BxpqW-58" value="New state: TicketStatus " style="text;align=left;verticalAlign=top;spacingLeft=4;spacingRight=4;overflow=hidden;rotatable=0;points=[[0,0.5],[1,0.5]];portConstraint=eastwest;" parent="2G7QyxXY0g-MNs9BxpqW-56" vertex="1"><mxGeometry y="46" width="220" height="26" as="geometry"/></mxCell><mxCell id="2G7QyxXY0g-MNs9BxpqW-59" value="Old target date: LocalDateTime" style="text;strokeColor=none;fillColor=none;align=left;verticalAlign=top;spacingLeft=4;spacingRight=4;overflow=hidden;rotatable=0;points=[[0,0.5],[1,0.5]];portConstraint=eastwest;" parent="2G7QyxXY0g-MNs9BxpqW-56" vertex="1"><mxGeometry y="72" width="220" height="26" as="geometry"/></mxCell><mxCell id="2G7QyxXY0g-MNs9BxpqW-60" value="New target date: LocalDateTime" style="text;strokeColor=none;fillColor=none;align=left;verticalAlign=top;spacingLeft=4;spacingRight=4;overflow=hidden;rotatable=0;points=[[0,0.5],[1,0.5]];portConstraint=eastwest;" parent="2G7QyxXY0g-MNs9BxpqW-56" vertex="1"><mxGeometry y="98" width="220" height="26" as="geometry"/></mxCell><mxCell id="2G7QyxXY0g-MNs9BxpqW-62" value="Old current time spent: LocalDateTime" style="text;strokeColor=none;fillColor=none;align=left;verticalAlign=top;spacingLeft=4;spacingRight=4;overflow=hidden;rotatable=0;points=[[0,0.5],[1,0.5]];portConstraint=eastwest;" parent="2G7QyxXY0g-MNs9BxpqW-56" vertex="1"><mxGeometry y="124" width="220" height="26" as="geometry"/></mxCell><mxCell id="2G7QyxXY0g-MNs9BxpqW-63" value="New current time spent: LocalDateTime" style="text;strokeColor=none;fillColor=none;align=left;verticalAlign=top;spacingLeft=4;spacingRight=4;overflow=hidden;rotatable=0;points=[[0,0.5],[1,0.5]];portConstraint=eastwest;" parent="2G7QyxXY0g-MNs9BxpqW-56" vertex="1"><mxGeometry y="150" width="220" height="26" as="geometry"/></mxCell><mxCell id="2G7QyxXY0g-MNs9BxpqW-64" value="Old total time spent: LocalDateTime" style="text;strokeColor=none;fillColor=none;align=left;verticalAlign=top;spacingLeft=4;spacingRight=4;overflow=hidden;rotatable=0;points=[[0,0.5],[1,0.5]];portConstraint=eastwest;" parent="2G7QyxXY0g-MNs9BxpqW-56" vertex="1"><mxGeometry y="176" width="220" height="26" as="geometry"/></mxCell><mxCell id="2G7QyxXY0g-MNs9BxpqW-65" value="New total time spent: LocalDateTime" style="text;strokeColor=none;fillColor=none;align=left;verticalAlign=top;spacingLeft=4;spacingRight=4;overflow=hidden;rotatable=0;points=[[0,0.5],[1,0.5]];portConstraint=eastwest;" parent="2G7QyxXY0g-MNs9BxpqW-56" vertex="1"><mxGeometry y="202" width="220" height="26" as="geometry"/></mxCell><mxCell id="2G7QyxXY0g-MNs9BxpqW-66" value="Old time left: LocalDateTime" style="text;strokeColor=none;fillColor=none;align=left;verticalAlign=top;spacingLeft=4;spacingRight=4;overflow=hidden;rotatable=0;points=[[0,0.5],[1,0.5]];portConstraint=eastwest;" parent="2G7QyxXY0g-MNs9BxpqW-56" vertex="1"><mxGeometry y="228" width="220" height="26" as="geometry"/></mxCell><mxCell id="2G7QyxXY0g-MNs9BxpqW-67" value="New time left: LocalDateTime" style="text;strokeColor=none;fillColor=none;align=left;verticalAlign=top;spacingLeft=4;spacingRight=4;overflow=hidden;rotatable=0;points=[[0,0.5],[1,0.5]];portConstraint=eastwest;" parent="2G7QyxXY0g-MNs9BxpqW-56" vertex="1"><mxGeometry y="254" width="220" height="26" as="geometry"/></mxCell><mxCell id="Ooq9MZfTdX-30O_yYHVG-124" value="TicketAdditionalFields" style="swimlane;fontStyle=0;childLayout=stackLayout;horizontal=1;startSize=20;fillColor=none;horizontalStack=0;resizeParent=1;resizeParentMax=0;resizeLast=0;collapsible=1;marginBottom=0;" parent="1" vertex="1"><mxGeometry x="729" y="-600" width="191" height="150" as="geometry"><mxRectangle x="10" y="-1210" width="100" height="26" as="alternateBounds"/></mxGeometry></mxCell><mxCell id="Ooq9MZfTdX-30O_yYHVG-125" value="pending_info_from: User" style="text;strokeColor=none;fillColor=none;align=left;verticalAlign=top;spacingLeft=4;spacingRight=4;overflow=hidden;rotatable=0;points=[[0,0.5],[1,0.5]];portConstraint=eastwest;" parent="Ooq9MZfTdX-30O_yYHVG-124" vertex="1"><mxGeometry y="20" width="191" height="26" as="geometry"/></mxCell><mxCell id="Ooq9MZfTdX-30O_yYHVG-126" value="pending_action: PendingAction" style="text;align=left;verticalAlign=top;spacingLeft=4;spacingRight=4;overflow=hidden;rotatable=0;points=[[0,0.5],[1,0.5]];portConstraint=eastwest;" parent="Ooq9MZfTdX-30O_yYHVG-124" vertex="1"><mxGeometry y="46" width="191" height="26" as="geometry"/></mxCell><mxCell id="Ooq9MZfTdX-30O_yYHVG-130" value="reviewers: List&lt;User&gt;" style="text;strokeColor=none;fillColor=none;align=left;verticalAlign=top;spacingLeft=4;spacingRight=4;overflow=hidden;rotatable=0;points=[[0,0.5],[1,0.5]];portConstraint=eastwest;" parent="Ooq9MZfTdX-30O_yYHVG-124" vertex="1"><mxGeometry y="72" width="191" height="26" as="geometry"/></mxCell><mxCell id="Ooq9MZfTdX-30O_yYHVG-131" value="release_notes_details: String" style="text;strokeColor=none;fillColor=none;align=left;verticalAlign=top;spacingLeft=4;spacingRight=4;overflow=hidden;rotatable=0;points=[[0,0.5],[1,0.5]];portConstraint=eastwest;" parent="Ooq9MZfTdX-30O_yYHVG-124" vertex="1"><mxGeometry y="98" width="191" height="26" as="geometry"/></mxCell><mxCell id="2G7QyxXY0g-MNs9BxpqW-89" value="Ticket: Ticket" style="text;strokeColor=none;fillColor=none;align=left;verticalAlign=top;spacingLeft=4;spacingRight=4;overflow=hidden;rotatable=0;points=[[0,0.5],[1,0.5]];portConstraint=eastwest;" parent="Ooq9MZfTdX-30O_yYHVG-124" vertex="1"><mxGeometry y="124" width="191" height="26" as="geometry"/></mxCell><mxCell id="2G7QyxXY0g-MNs9BxpqW-40" value="Comment" style="swimlane;fontStyle=0;childLayout=stackLayout;horizontal=1;startSize=20;fillColor=none;horizontalStack=0;resizeParent=1;resizeParentMax=0;resizeLast=0;collapsible=1;marginBottom=0;" parent="1" vertex="1"><mxGeometry x="260" y="-550" width="180" height="124" as="geometry"><mxRectangle x="10" y="-1210" width="100" height="26" as="alternateBounds"/></mxGeometry></mxCell><mxCell id="2G7QyxXY0g-MNs9BxpqW-41" value="Creator: User" style="text;strokeColor=none;fillColor=none;align=left;verticalAlign=top;spacingLeft=4;spacingRight=4;overflow=hidden;rotatable=0;points=[[0,0.5],[1,0.5]];portConstraint=eastwest;" parent="2G7QyxXY0g-MNs9BxpqW-40" vertex="1"><mxGeometry y="20" width="180" height="26" as="geometry"/></mxCell><mxCell id="2G7QyxXY0g-MNs9BxpqW-42" value="Created: LocalDateTime" style="text;strokeColor=none;fillColor=none;align=left;verticalAlign=top;spacingLeft=4;spacingRight=4;overflow=hidden;rotatable=0;points=[[0,0.5],[1,0.5]];portConstraint=eastwest;" parent="2G7QyxXY0g-MNs9BxpqW-40" vertex="1"><mxGeometry y="46" width="180" height="26" as="geometry"/></mxCell><mxCell id="2G7QyxXY0g-MNs9BxpqW-43" value="Last Modified: LocalDateTime" style="text;strokeColor=none;fillColor=none;align=left;verticalAlign=top;spacingLeft=4;spacingRight=4;overflow=hidden;rotatable=0;points=[[0,0.5],[1,0.5]];portConstraint=eastwest;" parent="2G7QyxXY0g-MNs9BxpqW-40" vertex="1"><mxGeometry y="72" width="180" height="26" as="geometry"/></mxCell><mxCell id="2G7QyxXY0g-MNs9BxpqW-44" value="Content: CommentContent" style="text;strokeColor=none;fillColor=none;align=left;verticalAlign=top;spacingLeft=4;spacingRight=4;overflow=hidden;rotatable=0;points=[[0,0.5],[1,0.5]];portConstraint=eastwest;" parent="2G7QyxXY0g-MNs9BxpqW-40" vertex="1"><mxGeometry y="98" width="180" height="26" as="geometry"/></mxCell><mxCell id="2G7QyxXY0g-MNs9BxpqW-69" value="WorkLogHistoryRecord" style="swimlane;fontStyle=0;childLayout=stackLayout;horizontal=1;startSize=20;fillColor=none;horizontalStack=0;resizeParent=1;resizeParentMax=0;resizeLast=0;collapsible=1;marginBottom=0;" parent="1" vertex="1"><mxGeometry x="480" y="-772" width="180" height="124" as="geometry"><mxRectangle x="10" y="-1210" width="100" height="26" as="alternateBounds"/></mxGeometry></mxCell><mxCell id="2G7QyxXY0g-MNs9BxpqW-70" value="Created: LocalDateTime" style="text;strokeColor=none;fillColor=none;align=left;verticalAlign=top;spacingLeft=4;spacingRight=4;overflow=hidden;rotatable=0;points=[[0,0.5],[1,0.5]];portConstraint=eastwest;" parent="2G7QyxXY0g-MNs9BxpqW-69" vertex="1"><mxGeometry y="20" width="180" height="26" as="geometry"/></mxCell><mxCell id="2G7QyxXY0g-MNs9BxpqW-71" value="User: User" style="text;strokeColor=none;fillColor=none;align=left;verticalAlign=top;spacingLeft=4;spacingRight=4;overflow=hidden;rotatable=0;points=[[0,0.5],[1,0.5]];portConstraint=eastwest;" parent="2G7QyxXY0g-MNs9BxpqW-69" vertex="1"><mxGeometry y="46" width="180" height="26" as="geometry"/></mxCell><mxCell id="2G7QyxXY0g-MNs9BxpqW-72" value="Time spent: WorkTimeLog" style="text;strokeColor=none;fillColor=none;align=left;verticalAlign=top;spacingLeft=4;spacingRight=4;overflow=hidden;rotatable=0;points=[[0,0.5],[1,0.5]];portConstraint=eastwest;" parent="2G7QyxXY0g-MNs9BxpqW-69" vertex="1"><mxGeometry y="72" width="180" height="26" as="geometry"/></mxCell><mxCell id="2G7QyxXY0g-MNs9BxpqW-73" value="Comment: String" style="text;strokeColor=none;fillColor=none;align=left;verticalAlign=top;spacingLeft=4;spacingRight=4;overflow=hidden;rotatable=0;points=[[0,0.5],[1,0.5]];portConstraint=eastwest;" parent="2G7QyxXY0g-MNs9BxpqW-69" vertex="1"><mxGeometry y="98" width="180" height="26" as="geometry"/></mxCell><mxCell id="2G7QyxXY0g-MNs9BxpqW-51" value="HistoryRecord" style="swimlane;fontStyle=0;childLayout=stackLayout;horizontal=1;startSize=20;fillColor=none;horizontalStack=0;resizeParent=1;resizeParentMax=0;resizeLast=0;collapsible=1;marginBottom=0;" parent="1" vertex="1"><mxGeometry x="460" y="-530" width="180" height="150" as="geometry"><mxRectangle x="10" y="-1210" width="100" height="26" as="alternateBounds"/></mxGeometry></mxCell><mxCell id="2G7QyxXY0g-MNs9BxpqW-52" value="Field: String" style="text;strokeColor=none;fillColor=none;align=left;verticalAlign=top;spacingLeft=4;spacingRight=4;overflow=hidden;rotatable=0;points=[[0,0.5],[1,0.5]];portConstraint=eastwest;" parent="2G7QyxXY0g-MNs9BxpqW-51" vertex="1"><mxGeometry y="20" width="180" height="26" as="geometry"/></mxCell><mxCell id="2G7QyxXY0g-MNs9BxpqW-53" value="Old value: Object&#10;" style="text;strokeColor=none;fillColor=none;align=left;verticalAlign=top;spacingLeft=4;spacingRight=4;overflow=hidden;rotatable=0;points=[[0,0.5],[1,0.5]];portConstraint=eastwest;" parent="2G7QyxXY0g-MNs9BxpqW-51" vertex="1"><mxGeometry y="46" width="180" height="26" as="geometry"/></mxCell><mxCell id="2G7QyxXY0g-MNs9BxpqW-54" value="New value: Object&#10;" style="text;strokeColor=none;fillColor=none;align=left;verticalAlign=top;spacingLeft=4;spacingRight=4;overflow=hidden;rotatable=0;points=[[0,0.5],[1,0.5]];portConstraint=eastwest;" parent="2G7QyxXY0g-MNs9BxpqW-51" vertex="1"><mxGeometry y="72" width="180" height="26" as="geometry"/></mxCell><mxCell id="2G7QyxXY0g-MNs9BxpqW-55" value="User: User" style="text;strokeColor=none;fillColor=none;align=left;verticalAlign=top;spacingLeft=4;spacingRight=4;overflow=hidden;rotatable=0;points=[[0,0.5],[1,0.5]];portConstraint=eastwest;" parent="2G7QyxXY0g-MNs9BxpqW-51" vertex="1"><mxGeometry y="98" width="180" height="26" as="geometry"/></mxCell><mxCell id="2G7QyxXY0g-MNs9BxpqW-61" value="Date: LocalDateTime" style="text;strokeColor=none;fillColor=none;align=left;verticalAlign=top;spacingLeft=4;spacingRight=4;overflow=hidden;rotatable=0;points=[[0,0.5],[1,0.5]];portConstraint=eastwest;" parent="2G7QyxXY0g-MNs9BxpqW-51" vertex="1"><mxGeometry y="124" width="180" height="26" as="geometry"/></mxCell><mxCell id="2G7QyxXY0g-MNs9BxpqW-45" value="CommentContent" style="swimlane;fontStyle=0;childLayout=stackLayout;horizontal=1;startSize=20;fillColor=none;horizontalStack=0;resizeParent=1;resizeParentMax=0;resizeLast=0;collapsible=1;marginBottom=0;" parent="1" vertex="1"><mxGeometry x="150" y="-388" width="160" height="72" as="geometry"><mxRectangle x="10" y="-1210" width="100" height="26" as="alternateBounds"/></mxGeometry></mxCell><mxCell id="2G7QyxXY0g-MNs9BxpqW-46" value="Data: String" style="text;strokeColor=none;fillColor=none;align=left;verticalAlign=top;spacingLeft=4;spacingRight=4;overflow=hidden;rotatable=0;points=[[0,0.5],[1,0.5]];portConstraint=eastwest;" parent="2G7QyxXY0g-MNs9BxpqW-45" vertex="1"><mxGeometry y="20" width="160" height="26" as="geometry"/></mxCell><mxCell id="2G7QyxXY0g-MNs9BxpqW-47" value="Attachments: List&lt;Object&gt;" style="text;strokeColor=none;fillColor=none;align=left;verticalAlign=top;spacingLeft=4;spacingRight=4;overflow=hidden;rotatable=0;points=[[0,0.5],[1,0.5]];portConstraint=eastwest;" parent="2G7QyxXY0g-MNs9BxpqW-45" vertex="1"><mxGeometry y="46" width="160" height="26" as="geometry"/></mxCell><mxCell id="2G7QyxXY0g-MNs9BxpqW-145" value="Project" style="text;html=1;strokeColor=none;fillColor=none;align=center;verticalAlign=middle;whiteSpace=wrap;rounded=0;fontSize=72;" parent="1" vertex="1"><mxGeometry x="-870" y="-920" width="310" height="90" as="geometry"/></mxCell><mxCell id="2G7QyxXY0g-MNs9BxpqW-146" value="User" style="text;html=1;strokeColor=none;fillColor=none;align=center;verticalAlign=middle;whiteSpace=wrap;rounded=0;fontSize=72;" parent="1" vertex="1"><mxGeometry x="-500" y="-1790" width="310" height="90" as="geometry"/></mxCell><mxCell id="2G7QyxXY0g-MNs9BxpqW-148" value="Ticket" style="text;html=1;strokeColor=none;fillColor=none;align=center;verticalAlign=middle;whiteSpace=wrap;rounded=0;fontSize=72;" parent="1" vertex="1"><mxGeometry x="190" y="-1520" width="310" height="90" as="geometry"/></mxCell><mxCell id="2G7QyxXY0g-MNs9BxpqW-155" value="" style="rounded=1;whiteSpace=wrap;html=1;" parent="1" vertex="1"><mxGeometry x="230" y="-2120" width="1090" height="490" as="geometry"/></mxCell><mxCell id="2G7QyxXY0g-MNs9BxpqW-156" value="Search" style="text;html=1;strokeColor=none;fillColor=none;align=center;verticalAlign=middle;whiteSpace=wrap;rounded=0;fontSize=72;" parent="1" vertex="1"><mxGeometry x="220" y="-2220" width="310" height="90" as="geometry"/></mxCell><mxCell id="2G7QyxXY0g-MNs9BxpqW-157" value="SearchCriteria &lt;ENUM&gt;" style="swimlane;fontStyle=0;childLayout=stackLayout;horizontal=1;startSize=20;fillColor=none;horizontalStack=0;resizeParent=1;resizeParentMax=0;resizeLast=0;collapsible=1;marginBottom=0;" parent="1" vertex="1"><mxGeometry x="260" y="-2090" width="180" height="46" as="geometry"><mxRectangle x="10" y="-1210" width="100" height="26" as="alternateBounds"/></mxGeometry></mxCell><mxCell id="2G7QyxXY0g-MNs9BxpqW-158" value="getSqlQuery()" style="text;strokeColor=none;fillColor=none;align=left;verticalAlign=top;spacingLeft=4;spacingRight=4;overflow=hidden;rotatable=0;points=[[0,0.5],[1,0.5]];portConstraint=eastwest;" parent="2G7QyxXY0g-MNs9BxpqW-157" vertex="1"><mxGeometry y="20" width="180" height="26" as="geometry"/></mxCell><mxCell id="2G7QyxXY0g-MNs9BxpqW-168" style="edgeStyle=orthogonalEdgeStyle;rounded=0;orthogonalLoop=1;jettySize=auto;html=1;entryX=1;entryY=0.25;entryDx=0;entryDy=0;fontSize=72;jumpStyle=arc;" parent="1" source="2G7QyxXY0g-MNs9BxpqW-72" target="2G7QyxXY0g-MNs9BxpqW-163" edge="1"><mxGeometry relative="1" as="geometry"/></mxCell><mxCell id="2G7QyxXY0g-MNs9BxpqW-169" style="edgeStyle=orthogonalEdgeStyle;rounded=0;orthogonalLoop=1;jettySize=auto;html=1;entryX=0.25;entryY=0;entryDx=0;entryDy=0;fontSize=72;jumpStyle=arc;" parent="1" source="Ooq9MZfTdX-30O_yYHVG-113" target="2G7QyxXY0g-MNs9BxpqW-163" edge="1"><mxGeometry relative="1" as="geometry"><Array as="points"><mxPoint x="950" y="-809"/><mxPoint x="950" y="-1130"/><mxPoint x="275" y="-1130"/></Array></mxGeometry></mxCell><mxCell id="2G7QyxXY0g-MNs9BxpqW-170" style="edgeStyle=orthogonalEdgeStyle;rounded=0;orthogonalLoop=1;jettySize=auto;html=1;entryX=0.461;entryY=0;entryDx=0;entryDy=0;entryPerimeter=0;fontSize=72;jumpStyle=arc;" parent="1" source="Ooq9MZfTdX-30O_yYHVG-114" target="2G7QyxXY0g-MNs9BxpqW-163" edge="1"><mxGeometry relative="1" as="geometry"><Array as="points"><mxPoint x="950" y="-783"/><mxPoint x="950" y="-1130"/><mxPoint x="313" y="-1130"/></Array></mxGeometry></mxCell><mxCell id="2G7QyxXY0g-MNs9BxpqW-171" style="edgeStyle=orthogonalEdgeStyle;rounded=0;orthogonalLoop=1;jettySize=auto;html=1;entryX=0.75;entryY=0;entryDx=0;entryDy=0;fontSize=72;jumpStyle=arc;" parent="1" source="Ooq9MZfTdX-30O_yYHVG-115" target="2G7QyxXY0g-MNs9BxpqW-163" edge="1"><mxGeometry relative="1" as="geometry"><Array as="points"><mxPoint x="950" y="-757"/><mxPoint x="950" y="-1130"/><mxPoint x="365" y="-1130"/></Array></mxGeometry></mxCell><mxCell id="2G7QyxXY0g-MNs9BxpqW-163" value="WorkTimeLog" style="swimlane;fontStyle=0;childLayout=stackLayout;horizontal=1;startSize=20;fillColor=none;horizontalStack=0;resizeParent=1;resizeParentMax=0;resizeLast=0;collapsible=1;marginBottom=0;" parent="1" vertex="1"><mxGeometry x="230" y="-658" width="180" height="46" as="geometry"><mxRectangle x="10" y="-1210" width="100" height="26" as="alternateBounds"/></mxGeometry></mxCell><mxCell id="2G7QyxXY0g-MNs9BxpqW-165" value="Hours: Double" style="text;strokeColor=none;fillColor=none;align=left;verticalAlign=top;spacingLeft=4;spacingRight=4;overflow=hidden;rotatable=0;points=[[0,0.5],[1,0.5]];portConstraint=eastwest;" parent="2G7QyxXY0g-MNs9BxpqW-163" vertex="1"><mxGeometry y="20" width="180" height="26" as="geometry"/></mxCell><mxCell id="2" value="PendingAction &lt;ENUM&gt;" style="swimlane;fontStyle=0;childLayout=stackLayout;horizontal=1;startSize=20;fillColor=none;horizontalStack=0;resizeParent=1;resizeParentMax=0;resizeLast=0;collapsible=1;marginBottom=0;" vertex="1" parent="1"><mxGeometry x="724" y="-436" width="200" height="48" as="geometry"><mxRectangle x="10" y="-1210" width="100" height="26" as="alternateBounds"/></mxGeometry></mxCell><mxCell id="3" value="Check (pendingActions.txt)&#10;" style="text;strokeColor=none;fillColor=none;align=left;verticalAlign=top;spacingLeft=4;spacingRight=4;overflow=hidden;rotatable=0;points=[[0,0.5],[1,0.5]];portConstraint=eastwest;" vertex="1" parent="2"><mxGeometry y="20" width="200" height="28" as="geometry"/></mxCell><mxCell id="4" style="edgeStyle=orthogonalEdgeStyle;rounded=0;orthogonalLoop=1;jettySize=auto;html=1;entryX=0;entryY=0.25;entryDx=0;entryDy=0;jumpStyle=arc;" edge="1" parent="1" source="Ooq9MZfTdX-30O_yYHVG-126" target="2"><mxGeometry relative="1" as="geometry"><Array as="points"><mxPoint x="704" y="-541"/><mxPoint x="704" y="-424"/></Array></mxGeometry></mxCell><mxCell id="5" value="TestingCycle &lt;ENUM&gt;" style="swimlane;fontStyle=0;childLayout=stackLayout;horizontal=1;startSize=20;fillColor=none;horizontalStack=0;resizeParent=1;resizeParentMax=0;resizeLast=0;collapsible=1;marginBottom=0;" vertex="1" parent="1"><mxGeometry x="1590" y="-1060" width="200" height="48" as="geometry"><mxRectangle x="10" y="-1210" width="100" height="26" as="alternateBounds"/></mxGeometry></mxCell><mxCell id="6" value="Check (testCycle.txt)&#10;" style="text;strokeColor=none;fillColor=none;align=left;verticalAlign=top;spacingLeft=4;spacingRight=4;overflow=hidden;rotatable=0;points=[[0,0.5],[1,0.5]];portConstraint=eastwest;" vertex="1" parent="5"><mxGeometry y="20" width="200" height="28" as="geometry"/></mxCell><mxCell id="7" style="edgeStyle=orthogonalEdgeStyle;rounded=0;orthogonalLoop=1;jettySize=auto;html=1;entryX=0;entryY=0.25;entryDx=0;entryDy=0;jumpStyle=arc;" edge="1" parent="1" source="Ooq9MZfTdX-30O_yYHVG-79" target="5"><mxGeometry relative="1" as="geometry"><Array as="points"><mxPoint x="1520" y="-989"/><mxPoint x="1520" y="-1048"/></Array></mxGeometry></mxCell><mxCell id="8" value="RootCause &lt;ENUM&gt;" style="swimlane;fontStyle=0;childLayout=stackLayout;horizontal=1;startSize=20;fillColor=none;horizontalStack=0;resizeParent=1;resizeParentMax=0;resizeLast=0;collapsible=1;marginBottom=0;" vertex="1" parent="1"><mxGeometry x="1620" y="-1270" width="160" height="48" as="geometry"><mxRectangle x="10" y="-1210" width="100" height="26" as="alternateBounds"/></mxGeometry></mxCell><mxCell id="9" value="Check (rootCauses.txt)&#10;" style="text;strokeColor=none;fillColor=none;align=left;verticalAlign=top;spacingLeft=4;spacingRight=4;overflow=hidden;rotatable=0;points=[[0,0.5],[1,0.5]];portConstraint=eastwest;" vertex="1" parent="8"><mxGeometry y="20" width="160" height="28" as="geometry"/></mxCell><mxCell id="10" style="edgeStyle=orthogonalEdgeStyle;rounded=0;orthogonalLoop=1;jettySize=auto;html=1;entryX=0.5;entryY=0;entryDx=0;entryDy=0;jumpStyle=arc;" edge="1" parent="1" source="Ooq9MZfTdX-30O_yYHVG-117" target="8"><mxGeometry relative="1" as="geometry"><Array as="points"><mxPoint x="1700" y="-1337"/></Array></mxGeometry></mxCell><mxCell id="11" style="edgeStyle=orthogonalEdgeStyle;rounded=0;orthogonalLoop=1;jettySize=auto;html=1;entryX=1;entryY=0.25;entryDx=0;entryDy=0;jumpStyle=arc;" edge="1" parent="1" source="2G7QyxXY0g-MNs9BxpqW-57" target="2G7QyxXY0g-MNs9BxpqW-121"><mxGeometry relative="1" as="geometry"><Array as="points"><mxPoint x="940" y="-867"/><mxPoint x="940" y="-600"/><mxPoint x="1530" y="-600"/><mxPoint x="1530" y="-382"/></Array></mxGeometry></mxCell><mxCell id="12" style="edgeStyle=orthogonalEdgeStyle;rounded=0;orthogonalLoop=1;jettySize=auto;html=1;entryX=1;entryY=0.25;entryDx=0;entryDy=0;jumpStyle=arc;" edge="1" parent="1" source="2G7QyxXY0g-MNs9BxpqW-58" target="2G7QyxXY0g-MNs9BxpqW-121"><mxGeometry relative="1" as="geometry"><Array as="points"><mxPoint x="940" y="-841"/><mxPoint x="940" y="-590"/><mxPoint x="1520" y="-590"/><mxPoint x="1520" y="-382"/></Array></mxGeometry></mxCell><mxCell id="13" style="edgeStyle=orthogonalEdgeStyle;rounded=0;jumpStyle=arc;orthogonalLoop=1;jettySize=auto;html=1;entryX=0.878;entryY=0.065;entryDx=0;entryDy=0;entryPerimeter=0;" edge="1" parent="1" source="Ooq9MZfTdX-30O_yYHVG-122" target="2G7QyxXY0g-MNs9BxpqW-163"><mxGeometry relative="1" as="geometry"><Array as="points"><mxPoint x="1360" y="-1207"/><mxPoint x="1360" y="-1330"/><mxPoint x="410" y="-1330"/><mxPoint x="410" y="-780"/><mxPoint x="388" y="-780"/></Array></mxGeometry></mxCell><mxCell id="14" style="edgeStyle=orthogonalEdgeStyle;rounded=0;jumpStyle=arc;orthogonalLoop=1;jettySize=auto;html=1;entryX=0.769;entryY=1;entryDx=0;entryDy=0;entryPerimeter=0;" edge="1" parent="1" source="2G7QyxXY0g-MNs9BxpqW-71" target="2G7QyxXY0g-MNs9BxpqW-84"><mxGeometry relative="1" as="geometry"><Array as="points"><mxPoint x="-180" y="-713"/><mxPoint x="-180" y="-1130"/><mxPoint x="-427" y="-1130"/></Array></mxGeometry></mxCell><mxCell id="15" value="Sprint" style="swimlane;fontStyle=0;childLayout=stackLayout;horizontal=1;startSize=20;fillColor=none;horizontalStack=0;resizeParent=1;resizeParentMax=0;resizeLast=0;collapsible=1;marginBottom=0;" vertex="1" parent="1"><mxGeometry x="1560" y="-700" width="200" height="184" as="geometry"><mxRectangle x="10" y="-1210" width="100" height="26" as="alternateBounds"/></mxGeometry></mxCell><mxCell id="16" value="Tickets: List&lt;Ticket&gt;" style="text;strokeColor=none;fillColor=none;align=left;verticalAlign=top;spacingLeft=4;spacingRight=4;overflow=hidden;rotatable=0;points=[[0,0.5],[1,0.5]];portConstraint=eastwest;" vertex="1" parent="15"><mxGeometry y="20" width="200" height="26" as="geometry"/></mxCell><mxCell id="17" value="Start date: LocalDateTime" style="text;strokeColor=none;fillColor=none;align=left;verticalAlign=top;spacingLeft=4;spacingRight=4;overflow=hidden;rotatable=0;points=[[0,0.5],[1,0.5]];portConstraint=eastwest;" vertex="1" parent="15"><mxGeometry y="46" width="200" height="26" as="geometry"/></mxCell><mxCell id="18" value="End Time: LocalDateTime" style="text;strokeColor=none;fillColor=none;align=left;verticalAlign=top;spacingLeft=4;spacingRight=4;overflow=hidden;rotatable=0;points=[[0,0.5],[1,0.5]];portConstraint=eastwest;" vertex="1" parent="15"><mxGeometry y="72" width="200" height="28" as="geometry"/></mxCell><mxCell id="19" value="Name: String" style="text;strokeColor=none;fillColor=none;align=left;verticalAlign=top;spacingLeft=4;spacingRight=4;overflow=hidden;rotatable=0;points=[[0,0.5],[1,0.5]];portConstraint=eastwest;" vertex="1" parent="15"><mxGeometry y="100" width="200" height="28" as="geometry"/></mxCell><mxCell id="20" value="Assignee: List&lt;User&gt;" style="text;strokeColor=none;fillColor=none;align=left;verticalAlign=top;spacingLeft=4;spacingRight=4;overflow=hidden;rotatable=0;points=[[0,0.5],[1,0.5]];portConstraint=eastwest;" vertex="1" parent="15"><mxGeometry y="128" width="200" height="28" as="geometry"/></mxCell><mxCell id="21" value="Status: SprintStatus" style="text;strokeColor=none;fillColor=none;align=left;verticalAlign=top;spacingLeft=4;spacingRight=4;overflow=hidden;rotatable=0;points=[[0,0.5],[1,0.5]];portConstraint=eastwest;" vertex="1" parent="15"><mxGeometry y="156" width="200" height="28" as="geometry"/></mxCell><mxCell id="22" value="SprintStatus &lt;ENUM&gt;" style="swimlane;fontStyle=0;childLayout=stackLayout;horizontal=1;startSize=20;fillColor=none;horizontalStack=0;resizeParent=1;resizeParentMax=0;resizeLast=0;collapsible=1;marginBottom=0;" vertex="1" parent="1"><mxGeometry x="1560" y="-492" width="200" height="48" as="geometry"><mxRectangle x="10" y="-1210" width="100" height="26" as="alternateBounds"/></mxGeometry></mxCell><mxCell id="23" value="Check (sprintStatuses.txt)&#10;" style="text;strokeColor=none;fillColor=none;align=left;verticalAlign=top;spacingLeft=4;spacingRight=4;overflow=hidden;rotatable=0;points=[[0,0.5],[1,0.5]];portConstraint=eastwest;" vertex="1" parent="22"><mxGeometry y="20" width="200" height="28" as="geometry"/></mxCell><mxCell id="24" style="edgeStyle=orthogonalEdgeStyle;rounded=0;jumpStyle=arc;orthogonalLoop=1;jettySize=auto;html=1;entryX=1;entryY=0.25;entryDx=0;entryDy=0;" edge="1" parent="1" source="21" target="22"><mxGeometry relative="1" as="geometry"><Array as="points"><mxPoint x="1780" y="-530"/><mxPoint x="1780" y="-480"/></Array></mxGeometry></mxCell><mxCell id="25" style="edgeStyle=orthogonalEdgeStyle;rounded=0;jumpStyle=arc;orthogonalLoop=1;jettySize=auto;html=1;entryX=1.006;entryY=0.112;entryDx=0;entryDy=0;entryPerimeter=0;" edge="1" parent="1" source="16" target="Ooq9MZfTdX-30O_yYHVG-51"><mxGeometry relative="1" as="geometry"><Array as="points"><mxPoint x="1510" y="-667"/><mxPoint x="1510" y="-1119"/></Array></mxGeometry></mxCell><mxCell id="26" style="edgeStyle=orthogonalEdgeStyle;rounded=0;jumpStyle=arc;orthogonalLoop=1;jettySize=auto;html=1;entryX=0.6;entryY=1;entryDx=0;entryDy=0;entryPerimeter=0;" edge="1" parent="1" source="20" target="2G7QyxXY0g-MNs9BxpqW-84"><mxGeometry relative="1" as="geometry"><Array as="points"><mxPoint x="1550" y="-558"/><mxPoint x="1550" y="-200"/><mxPoint x="-190" y="-200"/><mxPoint x="-190" y="-1120"/><mxPoint x="-454" y="-1120"/></Array></mxGeometry></mxCell><mxCell id="27" style="edgeStyle=orthogonalEdgeStyle;rounded=0;jumpStyle=arc;orthogonalLoop=1;jettySize=auto;html=1;entryX=0;entryY=0.065;entryDx=0;entryDy=0;entryPerimeter=0;" edge="1" parent="1" source="Ooq9MZfTdX-30O_yYHVG-97" target="15"><mxGeometry relative="1" as="geometry"><Array as="points"><mxPoint x="1500" y="-755"/><mxPoint x="1500" y="-688"/></Array></mxGeometry></mxCell><mxCell id="28" style="edgeStyle=orthogonalEdgeStyle;rounded=0;jumpStyle=arc;orthogonalLoop=1;jettySize=auto;html=1;entryX=0.456;entryY=1;entryDx=0;entryDy=0;entryPerimeter=0;" edge="1" parent="1" source="Ooq9MZfTdX-30O_yYHVG-130" target="2G7QyxXY0g-MNs9BxpqW-84"><mxGeometry relative="1" as="geometry"><Array as="points"><mxPoint x="700" y="-515"/><mxPoint x="700" y="-300"/><mxPoint x="-200" y="-300"/><mxPoint x="-200" y="-1110"/><mxPoint x="-477" y="-1110"/></Array></mxGeometry></mxCell></root></mxGraphModel></diagram></mxfile>